<svg width="101" height="101" viewBox="0 0 101 101" fill="none" xmlns="http://www.w3.org/2000/svg">
<path d="M13.6691 66.4624H20.3837V72.732H13.6691V66.4624ZM27.0983 66.4624H33.813V72.732H27.0983V66.4624ZM13.6691 79.0017H20.3837V85.2714H13.6691V79.0017ZM27.0983 79.0017H33.813V85.2714H27.0983V79.0017ZM53.9568 53.923H60.6715V60.1927H53.9568V53.923ZM67.3861 53.923H74.1007V60.1927H67.3861V53.923ZM53.9568 66.4624H60.6715V72.732H53.9568V66.4624ZM67.3861 66.4624H74.1007V72.732H67.3861V66.4624ZM80.8154 53.923H87.53V60.1927H80.8154V53.923ZM80.8154 66.4624H87.53V72.732H80.8154V66.4624ZM53.9568 41.3836H60.6715V47.6533H53.9568V41.3836ZM67.3861 41.3836H74.1007V47.6533H67.3861V41.3836ZM80.8154 41.3836H87.53V47.6533H80.8154V41.3836ZM53.9568 28.8443H60.6715V35.114H53.9568V28.8443ZM67.3861 28.8443H74.1007V35.114H67.3861V28.8443ZM80.8154 28.8443H87.53V35.114H80.8154V28.8443ZM80.8154 16.3049H87.53V22.5746H80.8154V16.3049Z" fill="#550317"/>
<path fill-rule="evenodd" clip-rule="evenodd" d="M99.1281 0.897345C99.6144 1.17819 100.016 1.57037 100.294 2.03669C100.573 2.50302 100.719 3.02803 100.719 3.56196V97.6071C100.719 98.4386 100.366 99.2359 99.7361 99.8238C99.1065 100.412 98.2525 100.742 97.3621 100.742H77.2182C76.3278 100.742 75.4739 100.412 74.8442 99.8238C74.2146 99.2359 73.8609 98.4386 73.8609 97.6071V88.2026H67.1463V97.6071C67.1463 98.4386 66.7926 99.2359 66.1629 99.8238C65.5333 100.412 64.6794 100.742 63.789 100.742H3.35731C2.4669 100.742 1.61295 100.412 0.983334 99.8238C0.353716 99.2359 0 98.4386 0 97.6071V63.1239C0.000534798 62.4662 0.222577 61.8254 0.6347 61.292C1.04682 60.7587 1.62815 60.3599 2.2964 60.1521L40.2878 48.3275V28.6407C40.2878 28.059 40.4611 27.4888 40.7884 26.9938C41.1157 26.4989 41.584 26.0987 42.141 25.8381L95.858 0.759412C96.3704 0.519947 96.9399 0.406907 97.5123 0.431051C98.0846 0.455195 98.6409 0.615719 99.1281 0.897345ZM40.2878 54.9357L6.71463 65.381V94.4723H40.2878V54.9357ZM47.0024 94.4723H60.4317V85.0678C60.4317 84.2364 60.7854 83.439 61.415 82.8511C62.0446 82.2632 62.8985 81.933 63.789 81.933H77.2182C78.1086 81.933 78.9626 82.2632 79.5922 82.8511C80.2218 83.439 80.5755 84.2364 80.5755 85.0678V94.4723H94.0048V8.63413L47.0024 30.578V94.4723Z" fill="#550317"/>
</svg>
