<svg width="88" height="99" viewBox="0 0 88 99" fill="none" xmlns="http://www.w3.org/2000/svg">
<path fill-rule="evenodd" clip-rule="evenodd" d="M61.5875 44.1349C61.8785 44.4218 62.1094 44.7625 62.2669 45.1377C62.4245 45.5129 62.5056 45.9151 62.5056 46.3213C62.5056 46.7275 62.4245 47.1297 62.2669 47.5048C62.1094 47.88 61.8785 48.2208 61.5875 48.5076L42.8375 67.0361C42.5472 67.3237 42.2023 67.5519 41.8227 67.7076C41.443 67.8632 41.036 67.9434 40.625 67.9434C40.2139 67.9434 39.8069 67.8632 39.4273 67.7076C39.0476 67.5519 38.7028 67.3237 38.4125 67.0361L29.0375 57.7719C28.7469 57.4848 28.5165 57.1439 28.3592 56.7688C28.202 56.3936 28.121 55.9916 28.121 55.5855C28.121 55.1795 28.202 54.7774 28.3592 54.4023C28.5165 54.0271 28.7469 53.6863 29.0375 53.3992C29.6243 52.8193 30.4201 52.4935 31.25 52.4935C31.6609 52.4935 32.0678 52.5735 32.4474 52.7289C32.827 52.8843 33.1719 53.112 33.4625 53.3992L40.625 60.4832L57.1625 44.1349C57.4528 43.8473 57.7976 43.6192 58.1773 43.4635C58.5569 43.3078 58.9639 43.2277 59.375 43.2277C59.786 43.2277 60.193 43.3078 60.5727 43.4635C60.9523 43.6192 61.2972 43.8473 61.5875 44.1349Z" fill="white"/>
<path d="M18.75 9.26425H12.5C9.18479 9.26425 6.00537 10.5657 3.66117 12.8822C1.31696 15.1987 0 18.3405 0 21.6166V86.4664C0 89.7424 1.31696 92.8843 3.66117 95.2008C6.00537 97.5173 9.18479 98.8187 12.5 98.8187H75C78.3152 98.8187 81.4946 97.5173 83.8388 95.2008C86.183 92.8843 87.5 89.7424 87.5 86.4664V21.6166C87.5 18.3405 86.183 15.1987 83.8388 12.8822C81.4946 10.5657 78.3152 9.26425 75 9.26425H68.75V15.4404H75C76.6576 15.4404 78.2473 16.0911 79.4194 17.2494C80.5915 18.4076 81.25 19.9786 81.25 21.6166V86.4664C81.25 88.1044 80.5915 89.6753 79.4194 90.8336C78.2473 91.9918 76.6576 92.6425 75 92.6425H12.5C10.8424 92.6425 9.25268 91.9918 8.08058 90.8336C6.90848 89.6753 6.25 88.1044 6.25 86.4664V21.6166C6.25 19.9786 6.90848 18.4076 8.08058 17.2494C9.25268 16.0911 10.8424 15.4404 12.5 15.4404H18.75V9.26425Z" fill="white"/>
<path d="M53.125 6.17617C53.9538 6.17617 54.7487 6.50152 55.3347 7.08065C55.9208 7.65978 56.25 8.44524 56.25 9.26425V15.4404C56.25 16.2594 55.9208 17.0449 55.3347 17.624C54.7487 18.2032 53.9538 18.5285 53.125 18.5285H34.375C33.5462 18.5285 32.7513 18.2032 32.1653 17.624C31.5792 17.0449 31.25 16.2594 31.25 15.4404V9.26425C31.25 8.44524 31.5792 7.65978 32.1653 7.08065C32.7513 6.50152 33.5462 6.17617 34.375 6.17617H53.125ZM34.375 0C31.8886 0 29.504 0.976052 27.7459 2.71344C25.9877 4.45082 25 6.80722 25 9.26425V15.4404C25 17.8975 25.9877 20.2539 27.7459 21.9912C29.504 23.7286 31.8886 24.7047 34.375 24.7047H53.125C55.6114 24.7047 57.996 23.7286 59.7541 21.9912C61.5123 20.2539 62.5 17.8975 62.5 15.4404V9.26425C62.5 6.80722 61.5123 4.45082 59.7541 2.71344C57.996 0.976052 55.6114 0 53.125 0L34.375 0Z" fill="white"/>
</svg>
