<svg width="105" height="90" viewBox="0 0 105 90" fill="none" xmlns="http://www.w3.org/2000/svg">
<path d="M69.8268 4.15983C69.9618 3.7563 70.0091 3.33228 69.9658 2.91198C69.9225 2.49168 69.7895 2.08333 69.5745 1.71024C69.3594 1.33715 69.0664 1.00663 68.7123 0.73756C68.3582 0.468485 67.9499 0.266122 67.5106 0.142025C67.0714 0.017927 66.6098 -0.0254744 66.1523 0.0142979C65.6948 0.0540702 65.2503 0.176238 64.8442 0.373825C64.4381 0.571412 64.0783 0.840549 63.7855 1.16587C63.4926 1.49119 63.2723 1.86633 63.1372 2.26985L35.1474 85.8402C34.8746 86.6551 34.9654 87.5363 35.3997 88.2898C35.8341 89.0433 36.5765 89.6073 37.4636 89.858C38.3507 90.1086 39.3098 90.0252 40.13 89.6262C40.9501 89.2271 41.5642 88.5451 41.837 87.7301L69.8268 4.15983ZM30.4731 20.2246C30.799 20.5232 31.0575 20.8779 31.2338 21.2684C31.4102 21.6589 31.501 22.0775 31.501 22.5003C31.501 22.9231 31.4102 23.3417 31.2338 23.7322C31.0575 24.1227 30.799 24.4774 30.4731 24.776L8.45217 45L30.4731 65.224C31.1301 65.8276 31.4992 66.6462 31.4992 67.4997C31.4992 68.3532 31.1301 69.1718 30.4731 69.7754C29.8162 70.3789 28.9251 70.718 27.996 70.718C27.0669 70.718 26.1759 70.3789 25.5189 69.7754L1.02788 47.2757C0.702058 46.9771 0.443552 46.6224 0.267171 46.2319C0.0907904 45.8414 0 45.4228 0 45C0 44.5772 0.0907904 44.1586 0.267171 43.7681C0.443552 43.3776 0.702058 43.0229 1.02788 42.7243L25.5189 20.2246C25.8439 19.9253 26.23 19.6878 26.6551 19.5258C27.0802 19.3637 27.5358 19.2803 27.996 19.2803C28.4562 19.2803 28.9119 19.3637 29.337 19.5258C29.762 19.6878 30.1481 19.9253 30.4731 20.2246ZM74.5011 20.2246C74.1752 20.5232 73.9167 20.8779 73.7404 21.2684C73.564 21.6589 73.4732 22.0775 73.4732 22.5003C73.4732 22.9231 73.564 23.3417 73.7404 23.7322C73.9167 24.1227 74.1752 24.4774 74.5011 24.776L96.522 45L74.5011 65.224C74.1758 65.5229 73.9177 65.8776 73.7417 66.2681C73.5656 66.6586 73.475 67.0771 73.475 67.4997C73.475 67.9223 73.5656 68.3408 73.7417 68.7313C73.9177 69.1218 74.1758 69.4765 74.5011 69.7754C74.8264 70.0742 75.2125 70.3113 75.6376 70.473C76.0626 70.6348 76.5181 70.718 76.9782 70.718C77.4382 70.718 77.8937 70.6348 78.3188 70.473C78.7438 70.3113 79.13 70.0742 79.4553 69.7754L103.946 47.2757C104.272 46.9771 104.531 46.6224 104.707 46.2319C104.883 45.8414 104.974 45.4228 104.974 45C104.974 44.5772 104.883 44.1586 104.707 43.7681C104.531 43.3776 104.272 43.0229 103.946 42.7243L79.4553 20.2246C79.1303 19.9253 78.7442 19.6878 78.3191 19.5258C77.894 19.3637 77.4384 19.2803 76.9782 19.2803C76.518 19.2803 76.0623 19.3637 75.6372 19.5258C75.2122 19.6878 74.8261 19.9253 74.5011 20.2246Z" fill="#550317"/>
</svg>
