<svg width="874" height="500" viewBox="0 0 874 500" fill="none" xmlns="http://www.w3.org/2000/svg">
<circle cx="472" cy="250" r="247.5" stroke="#550317" stroke-width="5" stroke-dasharray="10 10"/>
<circle cx="598" cy="41" r="30" fill="#961236"/>
<circle cx="277" cy="105" r="30" fill="#961236"/>
<circle cx="715" cy="270" r="30" fill="#961236"/>
<circle cx="583" cy="467" r="30" fill="#961236"/>
<circle cx="265" cy="376" r="30" fill="#961236"/>
<path d="M648.992 53V36.2H656.264C657.768 36.2 659.064 36.448 660.152 36.944C661.24 37.424 662.08 38.12 662.672 39.032C663.264 39.944 663.56 41.032 663.56 42.296C663.56 43.544 663.264 44.624 662.672 45.536C662.08 46.448 661.24 47.152 660.152 47.648C659.064 48.128 657.768 48.368 656.264 48.368H651.152L652.88 46.616V53H648.992ZM652.88 47.048L651.152 45.2H656.048C657.248 45.2 658.144 44.944 658.736 44.432C659.328 43.92 659.624 43.208 659.624 42.296C659.624 41.368 659.328 40.648 658.736 40.136C658.144 39.624 657.248 39.368 656.048 39.368H651.152L652.88 37.52V47.048ZM666.048 53V40.088H669.624V43.736L669.12 42.68C669.504 41.768 670.12 41.08 670.968 40.616C671.816 40.136 672.848 39.896 674.064 39.896V43.352C673.904 43.336 673.76 43.328 673.632 43.328C673.504 43.312 673.368 43.304 673.224 43.304C672.2 43.304 671.368 43.6 670.728 44.192C670.104 44.768 669.792 45.672 669.792 46.904V53H666.048ZM682.605 53.192C681.133 53.192 679.837 52.904 678.717 52.328C677.613 51.752 676.757 50.968 676.149 49.976C675.541 48.968 675.237 47.824 675.237 46.544C675.237 45.248 675.533 44.104 676.125 43.112C676.733 42.104 677.557 41.32 678.597 40.76C679.637 40.184 680.813 39.896 682.125 39.896C683.389 39.896 684.525 40.168 685.533 40.712C686.557 41.24 687.365 42.008 687.957 43.016C688.549 44.008 688.845 45.2 688.845 46.592C688.845 46.736 688.837 46.904 688.821 47.096C688.805 47.272 688.789 47.44 688.773 47.6H678.285V45.416H686.805L685.365 46.064C685.365 45.392 685.229 44.808 684.957 44.312C684.685 43.816 684.309 43.432 683.829 43.16C683.349 42.872 682.789 42.728 682.149 42.728C681.509 42.728 680.941 42.872 680.445 43.16C679.965 43.432 679.589 43.824 679.317 44.336C679.045 44.832 678.909 45.424 678.909 46.112V46.688C678.909 47.392 679.061 48.016 679.365 48.56C679.685 49.088 680.125 49.496 680.685 49.784C681.261 50.056 681.933 50.192 682.701 50.192C683.389 50.192 683.989 50.088 684.501 49.88C685.029 49.672 685.509 49.36 685.941 48.944L687.933 51.104C687.341 51.776 686.597 52.296 685.701 52.664C684.805 53.016 683.773 53.192 682.605 53.192ZM695.681 53.192C694.577 53.192 693.513 53.064 692.489 52.808C691.481 52.536 690.681 52.2 690.089 51.8L691.337 49.112C691.929 49.48 692.625 49.784 693.425 50.024C694.241 50.248 695.041 50.36 695.825 50.36C696.689 50.36 697.297 50.256 697.649 50.048C698.017 49.84 698.201 49.552 698.201 49.184C698.201 48.88 698.057 48.656 697.769 48.512C697.497 48.352 697.129 48.232 696.665 48.152C696.201 48.072 695.689 47.992 695.129 47.912C694.585 47.832 694.033 47.728 693.473 47.6C692.913 47.456 692.401 47.248 691.937 46.976C691.473 46.704 691.097 46.336 690.809 45.872C690.537 45.408 690.401 44.808 690.401 44.072C690.401 43.256 690.633 42.536 691.097 41.912C691.577 41.288 692.265 40.8 693.161 40.448C694.057 40.08 695.129 39.896 696.377 39.896C697.257 39.896 698.153 39.992 699.065 40.184C699.977 40.376 700.737 40.656 701.345 41.024L700.097 43.688C699.473 43.32 698.841 43.072 698.201 42.944C697.577 42.8 696.969 42.728 696.377 42.728C695.545 42.728 694.937 42.84 694.553 43.064C694.169 43.288 693.977 43.576 693.977 43.928C693.977 44.248 694.113 44.488 694.385 44.648C694.673 44.808 695.049 44.936 695.513 45.032C695.977 45.128 696.481 45.216 697.025 45.296C697.585 45.36 698.145 45.464 698.705 45.608C699.265 45.752 699.769 45.96 700.217 46.232C700.681 46.488 701.057 46.848 701.345 47.312C701.633 47.76 701.777 48.352 701.777 49.088C701.777 49.888 701.537 50.6 701.057 51.224C700.577 51.832 699.881 52.312 698.969 52.664C698.073 53.016 696.977 53.192 695.681 53.192ZM704.087 53V40.088H707.831V53H704.087ZM705.959 38.288C705.271 38.288 704.711 38.088 704.279 37.688C703.847 37.288 703.631 36.792 703.631 36.2C703.631 35.608 703.847 35.112 704.279 34.712C704.711 34.312 705.271 34.112 705.959 34.112C706.647 34.112 707.207 34.304 707.639 34.688C708.071 35.056 708.287 35.536 708.287 36.128C708.287 36.752 708.071 37.272 707.639 37.688C707.223 38.088 706.663 38.288 705.959 38.288ZM716.85 53.192C715.634 53.192 714.538 52.92 713.562 52.376C712.586 51.816 711.81 51.04 711.234 50.048C710.674 49.056 710.394 47.888 710.394 46.544C710.394 45.184 710.674 44.008 711.234 43.016C711.81 42.024 712.586 41.256 713.562 40.712C714.538 40.168 715.634 39.896 716.85 39.896C717.938 39.896 718.89 40.136 719.706 40.616C720.522 41.096 721.154 41.824 721.602 42.8C722.05 43.776 722.274 45.024 722.274 46.544C722.274 48.048 722.058 49.296 721.626 50.288C721.194 51.264 720.57 51.992 719.754 52.472C718.954 52.952 717.986 53.192 716.85 53.192ZM717.498 50.12C718.106 50.12 718.658 49.976 719.154 49.688C719.65 49.4 720.042 48.992 720.33 48.464C720.634 47.92 720.786 47.28 720.786 46.544C720.786 45.792 720.634 45.152 720.33 44.624C720.042 44.096 719.65 43.688 719.154 43.4C718.658 43.112 718.106 42.968 717.498 42.968C716.874 42.968 716.314 43.112 715.818 43.4C715.322 43.688 714.922 44.096 714.618 44.624C714.33 45.152 714.186 45.792 714.186 46.544C714.186 47.28 714.33 47.92 714.618 48.464C714.922 48.992 715.322 49.4 715.818 49.688C716.314 49.976 716.874 50.12 717.498 50.12ZM720.882 53V50.36L720.954 46.52L720.714 42.704V35.192H724.458V53H720.882ZM734.331 53.192C732.859 53.192 731.563 52.904 730.443 52.328C729.339 51.752 728.483 50.968 727.875 49.976C727.267 48.968 726.963 47.824 726.963 46.544C726.963 45.248 727.259 44.104 727.851 43.112C728.459 42.104 729.283 41.32 730.323 40.76C731.363 40.184 732.539 39.896 733.851 39.896C735.115 39.896 736.251 40.168 737.259 40.712C738.283 41.24 739.091 42.008 739.683 43.016C740.275 44.008 740.571 45.2 740.571 46.592C740.571 46.736 740.563 46.904 740.547 47.096C740.531 47.272 740.515 47.44 740.499 47.6H730.011V45.416H738.531L737.091 46.064C737.091 45.392 736.955 44.808 736.683 44.312C736.411 43.816 736.035 43.432 735.555 43.16C735.075 42.872 734.515 42.728 733.875 42.728C733.235 42.728 732.667 42.872 732.171 43.16C731.691 43.432 731.315 43.824 731.043 44.336C730.771 44.832 730.635 45.424 730.635 46.112V46.688C730.635 47.392 730.787 48.016 731.091 48.56C731.411 49.088 731.851 49.496 732.411 49.784C732.987 50.056 733.659 50.192 734.427 50.192C735.115 50.192 735.715 50.088 736.227 49.88C736.755 49.672 737.235 49.36 737.667 48.944L739.659 51.104C739.067 51.776 738.323 52.296 737.427 52.664C736.531 53.016 735.499 53.192 734.331 53.192ZM728.955 38.432L732.123 34.976H735.435L738.603 38.432H735.867L732.555 35.552H735.003L731.691 38.432H728.955ZM750.912 39.896C751.936 39.896 752.848 40.104 753.648 40.52C754.464 40.92 755.104 41.544 755.568 42.392C756.032 43.224 756.264 44.296 756.264 45.608V53H752.52V46.184C752.52 45.144 752.288 44.376 751.824 43.88C751.376 43.384 750.736 43.136 749.904 43.136C749.312 43.136 748.776 43.264 748.296 43.52C747.832 43.76 747.464 44.136 747.192 44.648C746.936 45.16 746.808 45.816 746.808 46.616V53H743.064V40.088H746.64V43.664L745.968 42.584C746.432 41.72 747.096 41.056 747.96 40.592C748.824 40.128 749.808 39.896 750.912 39.896ZM765.991 53.192C764.599 53.192 763.359 52.912 762.271 52.352C761.183 51.776 760.327 50.984 759.703 49.976C759.095 48.968 758.791 47.824 758.791 46.544C758.791 45.248 759.095 44.104 759.703 43.112C760.327 42.104 761.183 41.32 762.271 40.76C763.359 40.184 764.599 39.896 765.991 39.896C767.351 39.896 768.535 40.184 769.543 40.76C770.551 41.32 771.295 42.128 771.775 43.184L768.871 44.744C768.535 44.136 768.111 43.688 767.599 43.4C767.103 43.112 766.559 42.968 765.967 42.968C765.327 42.968 764.751 43.112 764.239 43.4C763.727 43.688 763.319 44.096 763.015 44.624C762.727 45.152 762.583 45.792 762.583 46.544C762.583 47.296 762.727 47.936 763.015 48.464C763.319 48.992 763.727 49.4 764.239 49.688C764.751 49.976 765.327 50.12 765.967 50.12C766.559 50.12 767.103 49.984 767.599 49.712C768.111 49.424 768.535 48.968 768.871 48.344L771.775 49.928C771.295 50.968 770.551 51.776 769.543 52.352C768.535 52.912 767.351 53.192 765.991 53.192ZM773.861 53V40.088H777.605V53H773.861ZM775.733 38.288C775.045 38.288 774.485 38.088 774.053 37.688C773.621 37.288 773.405 36.792 773.405 36.2C773.405 35.608 773.621 35.112 774.053 34.712C774.485 34.312 775.045 34.112 775.733 34.112C776.421 34.112 776.981 34.304 777.413 34.688C777.845 35.056 778.061 35.536 778.061 36.128C778.061 36.752 777.845 37.272 777.413 37.688C776.997 38.088 776.437 38.288 775.733 38.288ZM789 53V50.48L788.76 49.928V45.416C788.76 44.616 788.512 43.992 788.016 43.544C787.536 43.096 786.792 42.872 785.784 42.872C785.096 42.872 784.416 42.984 783.744 43.208C783.088 43.416 782.528 43.704 782.064 44.072L780.72 41.456C781.424 40.96 782.272 40.576 783.264 40.304C784.256 40.032 785.264 39.896 786.288 39.896C788.256 39.896 789.784 40.36 790.872 41.288C791.96 42.216 792.504 43.664 792.504 45.632V53H789ZM785.064 53.192C784.056 53.192 783.192 53.024 782.472 52.688C781.752 52.336 781.2 51.864 780.816 51.272C780.432 50.68 780.24 50.016 780.24 49.28C780.24 48.512 780.424 47.84 780.792 47.264C781.176 46.688 781.776 46.24 782.592 45.92C783.408 45.584 784.472 45.416 785.784 45.416H789.216V47.6H786.192C785.312 47.6 784.704 47.744 784.368 48.032C784.048 48.32 783.888 48.68 783.888 49.112C783.888 49.592 784.072 49.976 784.44 50.264C784.824 50.536 785.344 50.672 786 50.672C786.624 50.672 787.184 50.528 787.68 50.24C788.176 49.936 788.536 49.496 788.76 48.92L789.336 50.648C789.064 51.48 788.568 52.112 787.848 52.544C787.128 52.976 786.2 53.192 785.064 53.192Z" fill="black"/>
<path d="M770.992 279V262.2H778.264C779.768 262.2 781.064 262.448 782.152 262.944C783.24 263.424 784.08 264.12 784.672 265.032C785.264 265.944 785.56 267.032 785.56 268.296C785.56 269.544 785.264 270.624 784.672 271.536C784.08 272.448 783.24 273.152 782.152 273.648C781.064 274.128 779.768 274.368 778.264 274.368H773.152L774.88 272.616V279H770.992ZM774.88 273.048L773.152 271.2H778.048C779.248 271.2 780.144 270.944 780.736 270.432C781.328 269.92 781.624 269.208 781.624 268.296C781.624 267.368 781.328 266.648 780.736 266.136C780.144 265.624 779.248 265.368 778.048 265.368H773.152L774.88 263.52V273.048ZM788.048 279V266.088H791.624V269.736L791.12 268.68C791.504 267.768 792.12 267.08 792.968 266.616C793.816 266.136 794.848 265.896 796.064 265.896V269.352C795.904 269.336 795.76 269.328 795.632 269.328C795.504 269.312 795.368 269.304 795.224 269.304C794.2 269.304 793.368 269.6 792.728 270.192C792.104 270.768 791.792 271.672 791.792 272.904V279H788.048ZM804.341 279.192C802.965 279.192 801.741 278.904 800.669 278.328C799.613 277.752 798.773 276.968 798.149 275.976C797.541 274.968 797.237 273.824 797.237 272.544C797.237 271.248 797.541 270.104 798.149 269.112C798.773 268.104 799.613 267.32 800.669 266.76C801.741 266.184 802.965 265.896 804.341 265.896C805.701 265.896 806.917 266.184 807.989 266.76C809.061 267.32 809.901 268.096 810.509 269.088C811.117 270.08 811.421 271.232 811.421 272.544C811.421 273.824 811.117 274.968 810.509 275.976C809.901 276.968 809.061 277.752 807.989 278.328C806.917 278.904 805.701 279.192 804.341 279.192ZM804.341 276.12C804.965 276.12 805.525 275.976 806.021 275.688C806.517 275.4 806.909 274.992 807.197 274.464C807.485 273.92 807.629 273.28 807.629 272.544C807.629 271.792 807.485 271.152 807.197 270.624C806.909 270.096 806.517 269.688 806.021 269.4C805.525 269.112 804.965 268.968 804.341 268.968C803.717 268.968 803.157 269.112 802.661 269.4C802.165 269.688 801.765 270.096 801.461 270.624C801.173 271.152 801.029 271.792 801.029 272.544C801.029 273.28 801.173 273.92 801.461 274.464C801.765 274.992 802.165 275.4 802.661 275.688C803.157 275.976 803.717 276.12 804.341 276.12ZM812.963 283.848C812.387 283.848 811.835 283.784 811.307 283.656C810.779 283.544 810.331 283.368 809.963 283.128L810.971 280.416C811.403 280.72 811.931 280.872 812.555 280.872C813.019 280.872 813.387 280.712 813.659 280.392C813.947 280.088 814.091 279.624 814.091 279V266.088H817.835V278.976C817.835 280.464 817.411 281.648 816.563 282.528C815.715 283.408 814.515 283.848 812.963 283.848ZM815.963 264.288C815.275 264.288 814.715 264.088 814.283 263.688C813.851 263.288 813.635 262.792 813.635 262.2C813.635 261.608 813.851 261.112 814.283 260.712C814.715 260.312 815.275 260.112 815.963 260.112C816.651 260.112 817.211 260.304 817.643 260.688C818.075 261.056 818.291 261.536 818.291 262.128C818.291 262.752 818.075 263.272 817.643 263.688C817.227 264.088 816.667 264.288 815.963 264.288ZM827.691 279.192C826.219 279.192 824.923 278.904 823.803 278.328C822.699 277.752 821.843 276.968 821.235 275.976C820.627 274.968 820.323 273.824 820.323 272.544C820.323 271.248 820.619 270.104 821.211 269.112C821.819 268.104 822.643 267.32 823.683 266.76C824.723 266.184 825.899 265.896 827.211 265.896C828.475 265.896 829.611 266.168 830.619 266.712C831.643 267.24 832.451 268.008 833.043 269.016C833.635 270.008 833.931 271.2 833.931 272.592C833.931 272.736 833.923 272.904 833.907 273.096C833.891 273.272 833.875 273.44 833.859 273.6H823.371V271.416H831.891L830.451 272.064C830.451 271.392 830.315 270.808 830.043 270.312C829.771 269.816 829.395 269.432 828.915 269.16C828.435 268.872 827.875 268.728 827.235 268.728C826.595 268.728 826.027 268.872 825.531 269.16C825.051 269.432 824.675 269.824 824.403 270.336C824.131 270.832 823.995 271.424 823.995 272.112V272.688C823.995 273.392 824.147 274.016 824.451 274.56C824.771 275.088 825.211 275.496 825.771 275.784C826.347 276.056 827.019 276.192 827.787 276.192C828.475 276.192 829.075 276.088 829.587 275.88C830.115 275.672 830.595 275.36 831.027 274.944L833.019 277.104C832.427 277.776 831.683 278.296 830.787 278.664C829.891 279.016 828.859 279.192 827.691 279.192ZM841.703 279.192C840.183 279.192 838.999 278.808 838.151 278.04C837.303 277.256 836.879 276.096 836.879 274.56V263.232H840.623V274.512C840.623 275.056 840.767 275.48 841.055 275.784C841.343 276.072 841.735 276.216 842.231 276.216C842.823 276.216 843.327 276.056 843.743 275.736L844.751 278.376C844.367 278.648 843.903 278.856 843.359 279C842.831 279.128 842.279 279.192 841.703 279.192ZM834.887 269.256V266.376H843.839V269.256H834.887ZM852.599 279.192C851.223 279.192 849.999 278.904 848.927 278.328C847.871 277.752 847.031 276.968 846.407 275.976C845.799 274.968 845.495 273.824 845.495 272.544C845.495 271.248 845.799 270.104 846.407 269.112C847.031 268.104 847.871 267.32 848.927 266.76C849.999 266.184 851.223 265.896 852.599 265.896C853.959 265.896 855.175 266.184 856.247 266.76C857.319 267.32 858.159 268.096 858.767 269.088C859.375 270.08 859.679 271.232 859.679 272.544C859.679 273.824 859.375 274.968 858.767 275.976C858.159 276.968 857.319 277.752 856.247 278.328C855.175 278.904 853.959 279.192 852.599 279.192ZM852.599 276.12C853.223 276.12 853.783 275.976 854.279 275.688C854.775 275.4 855.167 274.992 855.455 274.464C855.743 273.92 855.887 273.28 855.887 272.544C855.887 271.792 855.743 271.152 855.455 270.624C855.167 270.096 854.775 269.688 854.279 269.4C853.783 269.112 853.223 268.968 852.599 268.968C851.975 268.968 851.415 269.112 850.919 269.4C850.423 269.688 850.023 270.096 849.719 270.624C849.431 271.152 849.287 271.792 849.287 272.544C849.287 273.28 849.431 273.92 849.719 274.464C850.023 274.992 850.423 275.4 850.919 275.688C851.415 275.976 851.975 276.12 852.599 276.12ZM866.525 279.192C865.421 279.192 864.357 279.064 863.333 278.808C862.325 278.536 861.525 278.2 860.933 277.8L862.181 275.112C862.773 275.48 863.469 275.784 864.269 276.024C865.085 276.248 865.885 276.36 866.669 276.36C867.533 276.36 868.141 276.256 868.493 276.048C868.861 275.84 869.045 275.552 869.045 275.184C869.045 274.88 868.901 274.656 868.613 274.512C868.341 274.352 867.973 274.232 867.509 274.152C867.045 274.072 866.533 273.992 865.973 273.912C865.429 273.832 864.877 273.728 864.317 273.6C863.757 273.456 863.245 273.248 862.781 272.976C862.317 272.704 861.941 272.336 861.653 271.872C861.381 271.408 861.245 270.808 861.245 270.072C861.245 269.256 861.477 268.536 861.941 267.912C862.421 267.288 863.109 266.8 864.005 266.448C864.901 266.08 865.973 265.896 867.221 265.896C868.101 265.896 868.997 265.992 869.909 266.184C870.821 266.376 871.581 266.656 872.189 267.024L870.941 269.688C870.317 269.32 869.685 269.072 869.045 268.944C868.421 268.8 867.813 268.728 867.221 268.728C866.389 268.728 865.781 268.84 865.397 269.064C865.013 269.288 864.821 269.576 864.821 269.928C864.821 270.248 864.957 270.488 865.229 270.648C865.517 270.808 865.893 270.936 866.357 271.032C866.821 271.128 867.325 271.216 867.869 271.296C868.429 271.36 868.989 271.464 869.549 271.608C870.109 271.752 870.613 271.96 871.061 272.232C871.525 272.488 871.901 272.848 872.189 273.312C872.477 273.76 872.621 274.352 872.621 275.088C872.621 275.888 872.381 276.6 871.901 277.224C871.421 277.832 870.725 278.312 869.813 278.664C868.917 279.016 867.821 279.192 866.525 279.192Z" fill="black"/>
<path d="M638.032 479.288C636.736 479.288 635.528 479.08 634.408 478.664C633.304 478.232 632.344 477.624 631.528 476.84C630.712 476.056 630.072 475.136 629.608 474.08C629.16 473.024 628.936 471.864 628.936 470.6C628.936 469.336 629.16 468.176 629.608 467.12C630.072 466.064 630.712 465.144 631.528 464.36C632.36 463.576 633.328 462.976 634.432 462.56C635.536 462.128 636.744 461.912 638.056 461.912C639.512 461.912 640.824 462.168 641.992 462.68C643.176 463.176 644.168 463.912 644.968 464.888L642.472 467.192C641.896 466.536 641.256 466.048 640.552 465.728C639.848 465.392 639.08 465.224 638.248 465.224C637.464 465.224 636.744 465.352 636.088 465.608C635.432 465.864 634.864 466.232 634.384 466.712C633.904 467.192 633.528 467.76 633.256 468.416C633 469.072 632.872 469.8 632.872 470.6C632.872 471.4 633 472.128 633.256 472.784C633.528 473.44 633.904 474.008 634.384 474.488C634.864 474.968 635.432 475.336 636.088 475.592C636.744 475.848 637.464 475.976 638.248 475.976C639.08 475.976 639.848 475.816 640.552 475.496C641.256 475.16 641.896 474.656 642.472 473.984L644.968 476.288C644.168 477.264 643.176 478.008 641.992 478.52C640.824 479.032 639.504 479.288 638.032 479.288ZM653.028 479.192C651.652 479.192 650.428 478.904 649.356 478.328C648.3 477.752 647.46 476.968 646.836 475.976C646.228 474.968 645.924 473.824 645.924 472.544C645.924 471.248 646.228 470.104 646.836 469.112C647.46 468.104 648.3 467.32 649.356 466.76C650.428 466.184 651.652 465.896 653.028 465.896C654.388 465.896 655.604 466.184 656.676 466.76C657.748 467.32 658.588 468.096 659.196 469.088C659.804 470.08 660.108 471.232 660.108 472.544C660.108 473.824 659.804 474.968 659.196 475.976C658.588 476.968 657.748 477.752 656.676 478.328C655.604 478.904 654.388 479.192 653.028 479.192ZM653.028 476.12C653.652 476.12 654.212 475.976 654.708 475.688C655.204 475.4 655.596 474.992 655.884 474.464C656.172 473.92 656.316 473.28 656.316 472.544C656.316 471.792 656.172 471.152 655.884 470.624C655.596 470.096 655.204 469.688 654.708 469.4C654.212 469.112 653.652 468.968 653.028 468.968C652.404 468.968 651.844 469.112 651.348 469.4C650.852 469.688 650.452 470.096 650.148 470.624C649.86 471.152 649.716 471.792 649.716 472.544C649.716 473.28 649.86 473.92 650.148 474.464C650.452 474.992 650.852 475.4 651.348 475.688C651.844 475.976 652.404 476.12 653.028 476.12ZM679.147 465.896C680.171 465.896 681.075 466.104 681.859 466.52C682.659 466.92 683.283 467.544 683.731 468.392C684.195 469.224 684.427 470.296 684.427 471.608V479H680.683V472.184C680.683 471.144 680.467 470.376 680.035 469.88C679.603 469.384 678.995 469.136 678.211 469.136C677.667 469.136 677.179 469.264 676.747 469.52C676.315 469.76 675.979 470.128 675.739 470.624C675.499 471.12 675.379 471.752 675.379 472.52V479H671.635V472.184C671.635 471.144 671.419 470.376 670.987 469.88C670.571 469.384 669.971 469.136 669.187 469.136C668.643 469.136 668.155 469.264 667.723 469.52C667.291 469.76 666.955 470.128 666.715 470.624C666.475 471.12 666.355 471.752 666.355 472.52V479H662.611V466.088H666.187V469.616L665.515 468.584C665.963 467.704 666.595 467.04 667.411 466.592C668.243 466.128 669.187 465.896 670.243 465.896C671.427 465.896 672.459 466.2 673.339 466.808C674.235 467.4 674.827 468.312 675.115 469.544L673.795 469.184C674.227 468.176 674.915 467.376 675.859 466.784C676.819 466.192 677.915 465.896 679.147 465.896ZM694.284 479.192C692.812 479.192 691.516 478.904 690.396 478.328C689.292 477.752 688.436 476.968 687.828 475.976C687.22 474.968 686.916 473.824 686.916 472.544C686.916 471.248 687.212 470.104 687.804 469.112C688.412 468.104 689.236 467.32 690.276 466.76C691.316 466.184 692.492 465.896 693.804 465.896C695.068 465.896 696.204 466.168 697.212 466.712C698.236 467.24 699.044 468.008 699.636 469.016C700.228 470.008 700.524 471.2 700.524 472.592C700.524 472.736 700.516 472.904 700.5 473.096C700.484 473.272 700.468 473.44 700.452 473.6H689.964V471.416H698.484L697.044 472.064C697.044 471.392 696.908 470.808 696.636 470.312C696.364 469.816 695.988 469.432 695.508 469.16C695.028 468.872 694.468 468.728 693.828 468.728C693.188 468.728 692.62 468.872 692.124 469.16C691.644 469.432 691.268 469.824 690.996 470.336C690.724 470.832 690.588 471.424 690.588 472.112V472.688C690.588 473.392 690.74 474.016 691.044 474.56C691.364 475.088 691.804 475.496 692.364 475.784C692.94 476.056 693.612 476.192 694.38 476.192C695.068 476.192 695.668 476.088 696.18 475.88C696.708 475.672 697.188 475.36 697.62 474.944L699.612 477.104C699.02 477.776 698.276 478.296 697.38 478.664C696.484 479.016 695.452 479.192 694.284 479.192ZM703.017 479V466.088H706.593V469.736L706.089 468.68C706.473 467.768 707.089 467.08 707.937 466.616C708.785 466.136 709.817 465.896 711.033 465.896V469.352C710.873 469.336 710.729 469.328 710.601 469.328C710.473 469.312 710.337 469.304 710.193 469.304C709.169 469.304 708.337 469.6 707.697 470.192C707.073 470.768 706.761 471.672 706.761 472.904V479H703.017ZM719.406 479.192C718.014 479.192 716.774 478.912 715.686 478.352C714.598 477.776 713.742 476.984 713.118 475.976C712.51 474.968 712.206 473.824 712.206 472.544C712.206 471.248 712.51 470.104 713.118 469.112C713.742 468.104 714.598 467.32 715.686 466.76C716.774 466.184 718.014 465.896 719.406 465.896C720.766 465.896 721.95 466.184 722.958 466.76C723.966 467.32 724.71 468.128 725.19 469.184L722.286 470.744C721.95 470.136 721.526 469.688 721.014 469.4C720.518 469.112 719.974 468.968 719.382 468.968C718.742 468.968 718.166 469.112 717.654 469.4C717.142 469.688 716.734 470.096 716.43 470.624C716.142 471.152 715.998 471.792 715.998 472.544C715.998 473.296 716.142 473.936 716.43 474.464C716.734 474.992 717.142 475.4 717.654 475.688C718.166 475.976 718.742 476.12 719.382 476.12C719.974 476.12 720.518 475.984 721.014 475.712C721.526 475.424 721.95 474.968 722.286 474.344L725.19 475.928C724.71 476.968 723.966 477.776 722.958 478.352C721.95 478.912 720.766 479.192 719.406 479.192ZM727.275 479V466.088H731.019V479H727.275ZM729.147 464.288C728.459 464.288 727.899 464.088 727.467 463.688C727.035 463.288 726.819 462.792 726.819 462.2C726.819 461.608 727.035 461.112 727.467 460.712C727.899 460.312 728.459 460.112 729.147 460.112C729.835 460.112 730.395 460.304 730.827 460.688C731.259 461.056 731.475 461.536 731.475 462.128C731.475 462.752 731.259 463.272 730.827 463.688C730.411 464.088 729.851 464.288 729.147 464.288ZM742.414 479V476.48L742.174 475.928V471.416C742.174 470.616 741.926 469.992 741.43 469.544C740.95 469.096 740.206 468.872 739.198 468.872C738.51 468.872 737.83 468.984 737.158 469.208C736.502 469.416 735.942 469.704 735.478 470.072L734.134 467.456C734.838 466.96 735.686 466.576 736.678 466.304C737.67 466.032 738.678 465.896 739.702 465.896C741.67 465.896 743.198 466.36 744.286 467.288C745.374 468.216 745.918 469.664 745.918 471.632V479H742.414ZM738.478 479.192C737.47 479.192 736.606 479.024 735.886 478.688C735.166 478.336 734.614 477.864 734.23 477.272C733.846 476.68 733.654 476.016 733.654 475.28C733.654 474.512 733.838 473.84 734.206 473.264C734.59 472.688 735.19 472.24 736.006 471.92C736.822 471.584 737.886 471.416 739.198 471.416H742.63V473.6H739.606C738.726 473.6 738.118 473.744 737.782 474.032C737.462 474.32 737.302 474.68 737.302 475.112C737.302 475.592 737.486 475.976 737.854 476.264C738.238 476.536 738.758 476.672 739.414 476.672C740.038 476.672 740.598 476.528 741.094 476.24C741.59 475.936 741.95 475.496 742.174 474.92L742.75 476.648C742.478 477.48 741.982 478.112 741.262 478.544C740.542 478.976 739.614 479.192 738.478 479.192ZM749.306 479V461.192H753.05V479H749.306Z" fill="black"/>
<path d="M86.4061 385V368.2H89.6221L96.7741 380.056H95.0701L102.102 368.2H105.294L105.342 385H101.694L101.67 373.792H102.342L96.7261 383.224H94.9741L89.2381 373.792H90.0541V385H86.4061ZM116.984 385V382.48L116.744 381.928V377.416C116.744 376.616 116.496 375.992 116 375.544C115.52 375.096 114.776 374.872 113.768 374.872C113.08 374.872 112.4 374.984 111.728 375.208C111.072 375.416 110.512 375.704 110.048 376.072L108.704 373.456C109.408 372.96 110.256 372.576 111.248 372.304C112.24 372.032 113.248 371.896 114.272 371.896C116.24 371.896 117.768 372.36 118.856 373.288C119.944 374.216 120.488 375.664 120.488 377.632V385H116.984ZM113.048 385.192C112.04 385.192 111.176 385.024 110.456 384.688C109.736 384.336 109.184 383.864 108.8 383.272C108.416 382.68 108.224 382.016 108.224 381.28C108.224 380.512 108.408 379.84 108.776 379.264C109.16 378.688 109.76 378.24 110.576 377.92C111.392 377.584 112.456 377.416 113.768 377.416H117.2V379.6H114.176C113.296 379.6 112.688 379.744 112.352 380.032C112.032 380.32 111.872 380.68 111.872 381.112C111.872 381.592 112.056 381.976 112.424 382.264C112.808 382.536 113.328 382.672 113.984 382.672C114.608 382.672 115.168 382.528 115.664 382.24C116.16 381.936 116.52 381.496 116.744 380.92L117.32 382.648C117.048 383.48 116.552 384.112 115.832 384.544C115.112 384.976 114.184 385.192 113.048 385.192ZM123.876 385V372.088H127.452V375.736L126.948 374.68C127.332 373.768 127.948 373.08 128.796 372.616C129.644 372.136 130.676 371.896 131.892 371.896V375.352C131.732 375.336 131.588 375.328 131.46 375.328C131.332 375.312 131.196 375.304 131.052 375.304C130.028 375.304 129.196 375.6 128.556 376.192C127.932 376.768 127.62 377.672 127.62 378.904V385H123.876ZM137.238 382.36L137.334 377.8L143.358 372.088H147.822L142.038 377.968L140.094 379.552L137.238 382.36ZM134.142 385V367.192H137.886V385H134.142ZM143.766 385L139.398 379.576L141.75 376.672L148.302 385H143.766ZM155.855 385.192C154.383 385.192 153.087 384.904 151.967 384.328C150.863 383.752 150.007 382.968 149.399 381.976C148.791 380.968 148.487 379.824 148.487 378.544C148.487 377.248 148.783 376.104 149.375 375.112C149.983 374.104 150.807 373.32 151.847 372.76C152.887 372.184 154.063 371.896 155.375 371.896C156.639 371.896 157.775 372.168 158.783 372.712C159.807 373.24 160.615 374.008 161.207 375.016C161.799 376.008 162.095 377.2 162.095 378.592C162.095 378.736 162.087 378.904 162.071 379.096C162.055 379.272 162.039 379.44 162.023 379.6H151.535V377.416H160.055L158.615 378.064C158.615 377.392 158.479 376.808 158.207 376.312C157.935 375.816 157.559 375.432 157.079 375.16C156.599 374.872 156.039 374.728 155.399 374.728C154.759 374.728 154.191 374.872 153.695 375.16C153.215 375.432 152.839 375.824 152.567 376.336C152.295 376.832 152.159 377.424 152.159 378.112V378.688C152.159 379.392 152.311 380.016 152.615 380.56C152.935 381.088 153.375 381.496 153.935 381.784C154.511 382.056 155.183 382.192 155.951 382.192C156.639 382.192 157.239 382.088 157.751 381.88C158.279 381.672 158.759 381.36 159.191 380.944L161.183 383.104C160.591 383.776 159.847 384.296 158.951 384.664C158.055 385.016 157.023 385.192 155.855 385.192ZM169.867 385.192C168.347 385.192 167.163 384.808 166.315 384.04C165.467 383.256 165.043 382.096 165.043 380.56V369.232H168.787V380.512C168.787 381.056 168.931 381.48 169.219 381.784C169.507 382.072 169.899 382.216 170.395 382.216C170.987 382.216 171.491 382.056 171.907 381.736L172.915 384.376C172.531 384.648 172.067 384.856 171.523 385C170.995 385.128 170.443 385.192 169.867 385.192ZM163.051 375.256V372.376H172.003V375.256H163.051ZM175.017 385V372.088H178.761V385H175.017ZM176.889 370.288C176.201 370.288 175.641 370.088 175.209 369.688C174.777 369.288 174.561 368.792 174.561 368.2C174.561 367.608 174.777 367.112 175.209 366.712C175.641 366.312 176.201 366.112 176.889 366.112C177.577 366.112 178.137 366.304 178.569 366.688C179.001 367.056 179.217 367.536 179.217 368.128C179.217 368.752 179.001 369.272 178.569 369.688C178.153 370.088 177.593 370.288 176.889 370.288ZM190.084 371.896C191.108 371.896 192.02 372.104 192.82 372.52C193.636 372.92 194.276 373.544 194.74 374.392C195.204 375.224 195.436 376.296 195.436 377.608V385H191.692V378.184C191.692 377.144 191.46 376.376 190.996 375.88C190.548 375.384 189.908 375.136 189.076 375.136C188.484 375.136 187.948 375.264 187.468 375.52C187.004 375.76 186.636 376.136 186.364 376.648C186.108 377.16 185.98 377.816 185.98 378.616V385H182.236V372.088H185.812V375.664L185.14 374.584C185.604 373.72 186.268 373.056 187.132 372.592C187.996 372.128 188.98 371.896 190.084 371.896ZM204.995 389.848C203.779 389.848 202.603 389.696 201.467 389.392C200.347 389.104 199.411 388.664 198.659 388.072L200.147 385.384C200.691 385.832 201.379 386.184 202.211 386.44C203.059 386.712 203.891 386.848 204.707 386.848C206.035 386.848 206.995 386.552 207.587 385.96C208.195 385.368 208.499 384.488 208.499 383.32V381.376L208.739 378.136L208.691 374.872V372.088H212.243V382.84C212.243 385.24 211.619 387.008 210.371 388.144C209.123 389.28 207.331 389.848 204.995 389.848ZM204.419 384.376C203.219 384.376 202.131 384.12 201.155 383.608C200.195 383.08 199.419 382.352 198.827 381.424C198.251 380.48 197.963 379.384 197.963 378.136C197.963 376.872 198.251 375.776 198.827 374.848C199.419 373.904 200.195 373.176 201.155 372.664C202.131 372.152 203.219 371.896 204.419 371.896C205.507 371.896 206.467 372.12 207.299 372.568C208.131 373 208.779 373.68 209.243 374.608C209.707 375.52 209.939 376.696 209.939 378.136C209.939 379.56 209.707 380.736 209.243 381.664C208.779 382.576 208.131 383.256 207.299 383.704C206.467 384.152 205.507 384.376 204.419 384.376ZM205.163 381.304C205.819 381.304 206.403 381.176 206.915 380.92C207.427 380.648 207.827 380.272 208.115 379.792C208.403 379.312 208.547 378.76 208.547 378.136C208.547 377.496 208.403 376.944 208.115 376.48C207.827 376 207.427 375.632 206.915 375.376C206.403 375.104 205.819 374.968 205.163 374.968C204.507 374.968 203.923 375.104 203.411 375.376C202.899 375.632 202.491 376 202.187 376.48C201.899 376.944 201.755 377.496 201.755 378.136C201.755 378.76 201.899 379.312 202.187 379.792C202.491 380.272 202.899 380.648 203.411 380.92C203.923 381.176 204.507 381.304 205.163 381.304Z" fill="black"/>
<path d="M8.032 99L0.784 82.2H4.984L11.32 97.08H8.848L15.28 82.2H19.144L11.872 99H8.032ZM20.4936 99V86.088H24.2376V99H20.4936ZM22.3656 84.288C21.6776 84.288 21.1176 84.088 20.6856 83.688C20.2536 83.288 20.0376 82.792 20.0376 82.2C20.0376 81.608 20.2536 81.112 20.6856 80.712C21.1176 80.312 21.6776 80.112 22.3656 80.112C23.0536 80.112 23.6136 80.304 24.0456 80.688C24.4776 81.056 24.6936 81.536 24.6936 82.128C24.6936 82.752 24.4776 83.272 24.0456 83.688C23.6296 84.088 23.0696 84.288 22.3656 84.288ZM33.9524 99.192C32.5604 99.192 31.3204 98.912 30.2324 98.352C29.1444 97.776 28.2884 96.984 27.6644 95.976C27.0564 94.968 26.7524 93.824 26.7524 92.544C26.7524 91.248 27.0564 90.104 27.6644 89.112C28.2884 88.104 29.1444 87.32 30.2324 86.76C31.3204 86.184 32.5604 85.896 33.9524 85.896C35.3124 85.896 36.4964 86.184 37.5044 86.76C38.5124 87.32 39.2564 88.128 39.7364 89.184L36.8324 90.744C36.4964 90.136 36.0724 89.688 35.5604 89.4C35.0644 89.112 34.5204 88.968 33.9284 88.968C33.2884 88.968 32.7124 89.112 32.2004 89.4C31.6884 89.688 31.2804 90.096 30.9764 90.624C30.6884 91.152 30.5444 91.792 30.5444 92.544C30.5444 93.296 30.6884 93.936 30.9764 94.464C31.2804 94.992 31.6884 95.4 32.2004 95.688C32.7124 95.976 33.2884 96.12 33.9284 96.12C34.5204 96.12 35.0644 95.984 35.5604 95.712C36.0724 95.424 36.4964 94.968 36.8324 94.344L39.7364 95.928C39.2564 96.968 38.5124 97.776 37.5044 98.352C36.4964 98.912 35.3124 99.192 33.9524 99.192ZM48.136 99.192C46.664 99.192 45.368 98.904 44.248 98.328C43.144 97.752 42.288 96.968 41.68 95.976C41.072 94.968 40.768 93.824 40.768 92.544C40.768 91.248 41.064 90.104 41.656 89.112C42.264 88.104 43.088 87.32 44.128 86.76C45.168 86.184 46.344 85.896 47.656 85.896C48.92 85.896 50.056 86.168 51.064 86.712C52.088 87.24 52.896 88.008 53.488 89.016C54.08 90.008 54.376 91.2 54.376 92.592C54.376 92.736 54.368 92.904 54.352 93.096C54.336 93.272 54.32 93.44 54.304 93.6H43.816V91.416H52.336L50.896 92.064C50.896 91.392 50.76 90.808 50.488 90.312C50.216 89.816 49.84 89.432 49.36 89.16C48.88 88.872 48.32 88.728 47.68 88.728C47.04 88.728 46.472 88.872 45.976 89.16C45.496 89.432 45.12 89.824 44.848 90.336C44.576 90.832 44.44 91.424 44.44 92.112V92.688C44.44 93.392 44.592 94.016 44.896 94.56C45.216 95.088 45.656 95.496 46.216 95.784C46.792 96.056 47.464 96.192 48.232 96.192C48.92 96.192 49.52 96.088 50.032 95.88C50.56 95.672 51.04 95.36 51.472 94.944L53.464 97.104C52.872 97.776 52.128 98.296 51.232 98.664C50.336 99.016 49.304 99.192 48.136 99.192ZM63.9295 99V82.2H71.2015C72.7055 82.2 74.0015 82.448 75.0895 82.944C76.1775 83.424 77.0175 84.12 77.6095 85.032C78.2015 85.944 78.4975 87.032 78.4975 88.296C78.4975 89.544 78.2015 90.624 77.6095 91.536C77.0175 92.448 76.1775 93.152 75.0895 93.648C74.0015 94.128 72.7055 94.368 71.2015 94.368H66.0895L67.8175 92.616V99H63.9295ZM67.8175 93.048L66.0895 91.2H70.9855C72.1855 91.2 73.0815 90.944 73.6735 90.432C74.2655 89.92 74.5615 89.208 74.5615 88.296C74.5615 87.368 74.2655 86.648 73.6735 86.136C73.0815 85.624 72.1855 85.368 70.9855 85.368H66.0895L67.8175 83.52V93.048ZM80.9858 99V86.088H84.5618V89.736L84.0578 88.68C84.4418 87.768 85.0578 87.08 85.9058 86.616C86.7538 86.136 87.7858 85.896 89.0018 85.896V89.352C88.8418 89.336 88.6978 89.328 88.5698 89.328C88.4418 89.312 88.3058 89.304 88.1618 89.304C87.1378 89.304 86.3058 89.6 85.6658 90.192C85.0418 90.768 84.7298 91.672 84.7298 92.904V99H80.9858ZM97.5423 99.192C96.0703 99.192 94.7743 98.904 93.6543 98.328C92.5503 97.752 91.6943 96.968 91.0863 95.976C90.4783 94.968 90.1743 93.824 90.1743 92.544C90.1743 91.248 90.4703 90.104 91.0623 89.112C91.6703 88.104 92.4943 87.32 93.5343 86.76C94.5743 86.184 95.7503 85.896 97.0623 85.896C98.3263 85.896 99.4623 86.168 100.47 86.712C101.494 87.24 102.302 88.008 102.894 89.016C103.486 90.008 103.782 91.2 103.782 92.592C103.782 92.736 103.774 92.904 103.758 93.096C103.742 93.272 103.726 93.44 103.71 93.6H93.2223V91.416H101.742L100.302 92.064C100.302 91.392 100.166 90.808 99.8943 90.312C99.6223 89.816 99.2463 89.432 98.7663 89.16C98.2863 88.872 97.7263 88.728 97.0863 88.728C96.4463 88.728 95.8783 88.872 95.3823 89.16C94.9023 89.432 94.5263 89.824 94.2543 90.336C93.9823 90.832 93.8463 91.424 93.8463 92.112V92.688C93.8463 93.392 93.9983 94.016 94.3023 94.56C94.6223 95.088 95.0623 95.496 95.6223 95.784C96.1983 96.056 96.8703 96.192 97.6383 96.192C98.3263 96.192 98.9263 96.088 99.4383 95.88C99.9663 95.672 100.446 95.36 100.878 94.944L102.87 97.104C102.278 97.776 101.534 98.296 100.638 98.664C99.7423 99.016 98.7103 99.192 97.5423 99.192ZM110.619 99.192C109.515 99.192 108.451 99.064 107.427 98.808C106.419 98.536 105.619 98.2 105.027 97.8L106.275 95.112C106.867 95.48 107.563 95.784 108.363 96.024C109.179 96.248 109.979 96.36 110.763 96.36C111.627 96.36 112.235 96.256 112.587 96.048C112.955 95.84 113.139 95.552 113.139 95.184C113.139 94.88 112.995 94.656 112.707 94.512C112.435 94.352 112.067 94.232 111.603 94.152C111.139 94.072 110.627 93.992 110.067 93.912C109.523 93.832 108.971 93.728 108.411 93.6C107.851 93.456 107.339 93.248 106.875 92.976C106.411 92.704 106.035 92.336 105.747 91.872C105.475 91.408 105.339 90.808 105.339 90.072C105.339 89.256 105.571 88.536 106.035 87.912C106.515 87.288 107.203 86.8 108.099 86.448C108.995 86.08 110.067 85.896 111.315 85.896C112.195 85.896 113.091 85.992 114.003 86.184C114.915 86.376 115.675 86.656 116.283 87.024L115.035 89.688C114.411 89.32 113.779 89.072 113.139 88.944C112.515 88.8 111.907 88.728 111.315 88.728C110.483 88.728 109.875 88.84 109.491 89.064C109.107 89.288 108.915 89.576 108.915 89.928C108.915 90.248 109.051 90.488 109.323 90.648C109.611 90.808 109.987 90.936 110.451 91.032C110.915 91.128 111.419 91.216 111.963 91.296C112.523 91.36 113.083 91.464 113.643 91.608C114.203 91.752 114.707 91.96 115.155 92.232C115.619 92.488 115.995 92.848 116.283 93.312C116.571 93.76 116.715 94.352 116.715 95.088C116.715 95.888 116.475 96.6 115.995 97.224C115.515 97.832 114.819 98.312 113.907 98.664C113.011 99.016 111.915 99.192 110.619 99.192ZM119.025 99V86.088H122.769V99H119.025ZM120.897 84.288C120.209 84.288 119.649 84.088 119.217 83.688C118.785 83.288 118.569 82.792 118.569 82.2C118.569 81.608 118.785 81.112 119.217 80.712C119.649 80.312 120.209 80.112 120.897 80.112C121.585 80.112 122.145 80.304 122.577 80.688C123.009 81.056 123.225 81.536 123.225 82.128C123.225 82.752 123.009 83.272 122.577 83.688C122.161 84.088 121.601 84.288 120.897 84.288ZM131.788 99.192C130.572 99.192 129.476 98.92 128.5 98.376C127.524 97.816 126.748 97.04 126.172 96.048C125.612 95.056 125.332 93.888 125.332 92.544C125.332 91.184 125.612 90.008 126.172 89.016C126.748 88.024 127.524 87.256 128.5 86.712C129.476 86.168 130.572 85.896 131.788 85.896C132.876 85.896 133.828 86.136 134.644 86.616C135.46 87.096 136.092 87.824 136.54 88.8C136.988 89.776 137.212 91.024 137.212 92.544C137.212 94.048 136.996 95.296 136.564 96.288C136.132 97.264 135.508 97.992 134.692 98.472C133.892 98.952 132.924 99.192 131.788 99.192ZM132.436 96.12C133.044 96.12 133.596 95.976 134.092 95.688C134.588 95.4 134.98 94.992 135.268 94.464C135.572 93.92 135.724 93.28 135.724 92.544C135.724 91.792 135.572 91.152 135.268 90.624C134.98 90.096 134.588 89.688 134.092 89.4C133.596 89.112 133.044 88.968 132.436 88.968C131.812 88.968 131.252 89.112 130.756 89.4C130.26 89.688 129.86 90.096 129.556 90.624C129.268 91.152 129.124 91.792 129.124 92.544C129.124 93.28 129.268 93.92 129.556 94.464C129.86 94.992 130.26 95.4 130.756 95.688C131.252 95.976 131.812 96.12 132.436 96.12ZM135.82 99V96.36L135.892 92.52L135.652 88.704V81.192H139.396V99H135.82ZM149.269 99.192C147.797 99.192 146.501 98.904 145.381 98.328C144.277 97.752 143.421 96.968 142.813 95.976C142.205 94.968 141.901 93.824 141.901 92.544C141.901 91.248 142.197 90.104 142.789 89.112C143.397 88.104 144.221 87.32 145.261 86.76C146.301 86.184 147.477 85.896 148.789 85.896C150.053 85.896 151.189 86.168 152.197 86.712C153.221 87.24 154.029 88.008 154.621 89.016C155.213 90.008 155.509 91.2 155.509 92.592C155.509 92.736 155.501 92.904 155.485 93.096C155.469 93.272 155.453 93.44 155.437 93.6H144.949V91.416H153.469L152.029 92.064C152.029 91.392 151.893 90.808 151.621 90.312C151.349 89.816 150.973 89.432 150.493 89.16C150.013 88.872 149.453 88.728 148.813 88.728C148.173 88.728 147.605 88.872 147.109 89.16C146.629 89.432 146.253 89.824 145.981 90.336C145.709 90.832 145.573 91.424 145.573 92.112V92.688C145.573 93.392 145.725 94.016 146.029 94.56C146.349 95.088 146.789 95.496 147.349 95.784C147.925 96.056 148.597 96.192 149.365 96.192C150.053 96.192 150.653 96.088 151.165 95.88C151.693 95.672 152.173 95.36 152.605 94.944L154.597 97.104C154.005 97.776 153.261 98.296 152.365 98.664C151.469 99.016 150.437 99.192 149.269 99.192ZM143.893 84.432L147.061 80.976H150.373L153.541 84.432H150.805L147.493 81.552H149.941L146.629 84.432H143.893ZM165.849 85.896C166.873 85.896 167.785 86.104 168.585 86.52C169.401 86.92 170.041 87.544 170.505 88.392C170.969 89.224 171.201 90.296 171.201 91.608V99H167.457V92.184C167.457 91.144 167.225 90.376 166.761 89.88C166.313 89.384 165.673 89.136 164.841 89.136C164.249 89.136 163.713 89.264 163.233 89.52C162.769 89.76 162.401 90.136 162.129 90.648C161.873 91.16 161.745 91.816 161.745 92.616V99H158.001V86.088H161.577V89.664L160.905 88.584C161.369 87.72 162.033 87.056 162.897 86.592C163.761 86.128 164.745 85.896 165.849 85.896ZM180.929 99.192C179.537 99.192 178.297 98.912 177.209 98.352C176.121 97.776 175.265 96.984 174.641 95.976C174.033 94.968 173.729 93.824 173.729 92.544C173.729 91.248 174.033 90.104 174.641 89.112C175.265 88.104 176.121 87.32 177.209 86.76C178.297 86.184 179.537 85.896 180.929 85.896C182.289 85.896 183.473 86.184 184.481 86.76C185.489 87.32 186.233 88.128 186.713 89.184L183.809 90.744C183.473 90.136 183.049 89.688 182.537 89.4C182.041 89.112 181.497 88.968 180.905 88.968C180.265 88.968 179.689 89.112 179.177 89.4C178.665 89.688 178.257 90.096 177.953 90.624C177.665 91.152 177.521 91.792 177.521 92.544C177.521 93.296 177.665 93.936 177.953 94.464C178.257 94.992 178.665 95.4 179.177 95.688C179.689 95.976 180.265 96.12 180.905 96.12C181.497 96.12 182.041 95.984 182.537 95.712C183.049 95.424 183.473 94.968 183.809 94.344L186.713 95.928C186.233 96.968 185.489 97.776 184.481 98.352C183.473 98.912 182.289 99.192 180.929 99.192ZM188.798 99V86.088H192.542V99H188.798ZM190.67 84.288C189.982 84.288 189.422 84.088 188.99 83.688C188.558 83.288 188.342 82.792 188.342 82.2C188.342 81.608 188.558 81.112 188.99 80.712C189.422 80.312 189.982 80.112 190.67 80.112C191.358 80.112 191.918 80.304 192.35 80.688C192.782 81.056 192.998 81.536 192.998 82.128C192.998 82.752 192.782 83.272 192.35 83.688C191.934 84.088 191.374 84.288 190.67 84.288ZM203.937 99V96.48L203.697 95.928V91.416C203.697 90.616 203.449 89.992 202.953 89.544C202.473 89.096 201.729 88.872 200.721 88.872C200.033 88.872 199.353 88.984 198.681 89.208C198.025 89.416 197.465 89.704 197.001 90.072L195.657 87.456C196.361 86.96 197.209 86.576 198.201 86.304C199.193 86.032 200.201 85.896 201.225 85.896C203.193 85.896 204.721 86.36 205.809 87.288C206.897 88.216 207.441 89.664 207.441 91.632V99H203.937ZM200.001 99.192C198.993 99.192 198.129 99.024 197.409 98.688C196.689 98.336 196.137 97.864 195.753 97.272C195.369 96.68 195.177 96.016 195.177 95.28C195.177 94.512 195.361 93.84 195.729 93.264C196.113 92.688 196.713 92.24 197.529 91.92C198.345 91.584 199.409 91.416 200.721 91.416H204.153V93.6H201.129C200.249 93.6 199.641 93.744 199.305 94.032C198.985 94.32 198.825 94.68 198.825 95.112C198.825 95.592 199.009 95.976 199.377 96.264C199.761 96.536 200.281 96.672 200.937 96.672C201.561 96.672 202.121 96.528 202.617 96.24C203.113 95.936 203.473 95.496 203.697 94.92L204.273 96.648C204.001 97.48 203.505 98.112 202.785 98.544C202.065 98.976 201.137 99.192 200.001 99.192ZM8.272 128.192C7.056 128.192 5.96 127.92 4.984 127.376C4.008 126.816 3.232 126.04 2.656 125.048C2.096 124.056 1.816 122.888 1.816 121.544C1.816 120.184 2.096 119.008 2.656 118.016C3.232 117.024 4.008 116.256 4.984 115.712C5.96 115.168 7.056 114.896 8.272 114.896C9.36 114.896 10.312 115.136 11.128 115.616C11.944 116.096 12.576 116.824 13.024 117.8C13.472 118.776 13.696 120.024 13.696 121.544C13.696 123.048 13.48 124.296 13.048 125.288C12.616 126.264 11.992 126.992 11.176 127.472C10.376 127.952 9.408 128.192 8.272 128.192ZM8.92 125.12C9.528 125.12 10.08 124.976 10.576 124.688C11.072 124.4 11.464 123.992 11.752 123.464C12.056 122.92 12.208 122.28 12.208 121.544C12.208 120.792 12.056 120.152 11.752 119.624C11.464 119.096 11.072 118.688 10.576 118.4C10.08 118.112 9.528 117.968 8.92 117.968C8.296 117.968 7.736 118.112 7.24 118.4C6.744 118.688 6.344 119.096 6.04 119.624C5.752 120.152 5.608 120.792 5.608 121.544C5.608 122.28 5.752 122.92 6.04 123.464C6.344 123.992 6.744 124.4 7.24 124.688C7.736 124.976 8.296 125.12 8.92 125.12ZM12.304 128V125.36L12.376 121.52L12.136 117.704V110.192H15.88V128H12.304ZM25.7532 128.192C24.2812 128.192 22.9852 127.904 21.8652 127.328C20.7612 126.752 19.9052 125.968 19.2972 124.976C18.6892 123.968 18.3852 122.824 18.3852 121.544C18.3852 120.248 18.6812 119.104 19.2732 118.112C19.8812 117.104 20.7052 116.32 21.7452 115.76C22.7852 115.184 23.9612 114.896 25.2732 114.896C26.5372 114.896 27.6732 115.168 28.6812 115.712C29.7052 116.24 30.5132 117.008 31.1052 118.016C31.6972 119.008 31.9932 120.2 31.9932 121.592C31.9932 121.736 31.9852 121.904 31.9692 122.096C31.9532 122.272 31.9372 122.44 31.9212 122.6H21.4332V120.416H29.9532L28.5132 121.064C28.5132 120.392 28.3772 119.808 28.1052 119.312C27.8332 118.816 27.4572 118.432 26.9772 118.16C26.4972 117.872 25.9372 117.728 25.2972 117.728C24.6572 117.728 24.0892 117.872 23.5932 118.16C23.1132 118.432 22.7372 118.824 22.4652 119.336C22.1932 119.832 22.0572 120.424 22.0572 121.112V121.688C22.0572 122.392 22.2092 123.016 22.5132 123.56C22.8332 124.088 23.2732 124.496 23.8332 124.784C24.4092 125.056 25.0812 125.192 25.8492 125.192C26.5372 125.192 27.1372 125.088 27.6492 124.88C28.1772 124.672 28.6572 124.36 29.0892 123.944L31.0812 126.104C30.4892 126.776 29.7452 127.296 28.8492 127.664C27.9532 128.016 26.9212 128.192 25.7532 128.192ZM49.6587 128.288C48.3307 128.288 47.1067 128.08 45.9867 127.664C44.8827 127.232 43.9147 126.624 43.0827 125.84C42.2667 125.056 41.6267 124.136 41.1627 123.08C40.7147 122.024 40.4907 120.864 40.4907 119.6C40.4907 118.336 40.7147 117.176 41.1627 116.12C41.6267 115.064 42.2747 114.144 43.1067 113.36C43.9387 112.576 44.9147 111.976 46.0347 111.56C47.1547 111.128 48.3867 110.912 49.7307 110.912C51.2187 110.912 52.5547 111.16 53.7387 111.656C54.9387 112.152 55.9467 112.872 56.7627 113.816L54.2667 116.12C53.6587 115.48 52.9947 115.008 52.2747 114.704C51.5547 114.384 50.7707 114.224 49.9227 114.224C49.1067 114.224 48.3627 114.352 47.6907 114.608C47.0187 114.864 46.4347 115.232 45.9387 115.712C45.4587 116.192 45.0827 116.76 44.8107 117.416C44.5547 118.072 44.4267 118.8 44.4267 119.6C44.4267 120.384 44.5547 121.104 44.8107 121.76C45.0827 122.416 45.4587 122.992 45.9387 123.488C46.4347 123.968 47.0107 124.336 47.6667 124.592C48.3387 124.848 49.0747 124.976 49.8747 124.976C50.6427 124.976 51.3867 124.856 52.1067 124.616C52.8427 124.36 53.5547 123.936 54.2427 123.344L56.4507 126.152C55.5387 126.84 54.4747 127.368 53.2587 127.736C52.0587 128.104 50.8587 128.288 49.6587 128.288ZM52.8987 125.648V119.336H56.4507V126.152L52.8987 125.648ZM66.2063 128.192C64.7343 128.192 63.4383 127.904 62.3183 127.328C61.2143 126.752 60.3583 125.968 59.7503 124.976C59.1423 123.968 58.8383 122.824 58.8383 121.544C58.8383 120.248 59.1343 119.104 59.7263 118.112C60.3343 117.104 61.1583 116.32 62.1983 115.76C63.2383 115.184 64.4143 114.896 65.7263 114.896C66.9903 114.896 68.1263 115.168 69.1343 115.712C70.1583 116.24 70.9663 117.008 71.5583 118.016C72.1503 119.008 72.4463 120.2 72.4463 121.592C72.4463 121.736 72.4383 121.904 72.4223 122.096C72.4063 122.272 72.3903 122.44 72.3743 122.6H61.8863V120.416H70.4063L68.9663 121.064C68.9663 120.392 68.8303 119.808 68.5583 119.312C68.2863 118.816 67.9103 118.432 67.4303 118.16C66.9503 117.872 66.3903 117.728 65.7503 117.728C65.1103 117.728 64.5423 117.872 64.0463 118.16C63.5663 118.432 63.1903 118.824 62.9183 119.336C62.6463 119.832 62.5103 120.424 62.5103 121.112V121.688C62.5103 122.392 62.6623 123.016 62.9663 123.56C63.2863 124.088 63.7263 124.496 64.2863 124.784C64.8623 125.056 65.5343 125.192 66.3023 125.192C66.9903 125.192 67.5903 125.088 68.1023 124.88C68.6303 124.672 69.1103 124.36 69.5423 123.944L71.5343 126.104C70.9423 126.776 70.1983 127.296 69.3023 127.664C68.4063 128.016 67.3743 128.192 66.2063 128.192ZM82.7869 114.896C83.8109 114.896 84.7229 115.104 85.5229 115.52C86.3389 115.92 86.9789 116.544 87.4429 117.392C87.9069 118.224 88.1389 119.296 88.1389 120.608V128H84.3949V121.184C84.3949 120.144 84.1629 119.376 83.6989 118.88C83.2509 118.384 82.6109 118.136 81.7789 118.136C81.1869 118.136 80.6509 118.264 80.1709 118.52C79.7069 118.76 79.3389 119.136 79.0669 119.648C78.8109 120.16 78.6829 120.816 78.6829 121.616V128H74.9389V115.088H78.5149V118.664L77.8429 117.584C78.3069 116.72 78.9709 116.056 79.8349 115.592C80.6989 115.128 81.6829 114.896 82.7869 114.896ZM96.8127 128.192C95.2927 128.192 94.1087 127.808 93.2607 127.04C92.4127 126.256 91.9887 125.096 91.9887 123.56V112.232H95.7327V123.512C95.7327 124.056 95.8767 124.48 96.1647 124.784C96.4527 125.072 96.8447 125.216 97.3407 125.216C97.9327 125.216 98.4367 125.056 98.8527 124.736L99.8607 127.376C99.4767 127.648 99.0127 127.856 98.4687 128C97.9407 128.128 97.3887 128.192 96.8127 128.192ZM89.9967 118.256V115.376H98.9487V118.256H89.9967ZM107.972 128.192C106.5 128.192 105.204 127.904 104.084 127.328C102.98 126.752 102.124 125.968 101.516 124.976C100.908 123.968 100.604 122.824 100.604 121.544C100.604 120.248 100.9 119.104 101.492 118.112C102.1 117.104 102.924 116.32 103.964 115.76C105.004 115.184 106.18 114.896 107.492 114.896C108.756 114.896 109.892 115.168 110.9 115.712C111.924 116.24 112.732 117.008 113.324 118.016C113.916 119.008 114.212 120.2 114.212 121.592C114.212 121.736 114.204 121.904 114.188 122.096C114.172 122.272 114.156 122.44 114.14 122.6H103.652V120.416H112.172L110.732 121.064C110.732 120.392 110.596 119.808 110.324 119.312C110.052 118.816 109.676 118.432 109.196 118.16C108.716 117.872 108.156 117.728 107.516 117.728C106.876 117.728 106.308 117.872 105.812 118.16C105.332 118.432 104.956 118.824 104.684 119.336C104.412 119.832 104.276 120.424 104.276 121.112V121.688C104.276 122.392 104.428 123.016 104.732 123.56C105.052 124.088 105.492 124.496 106.052 124.784C106.628 125.056 107.3 125.192 108.068 125.192C108.756 125.192 109.356 125.088 109.868 124.88C110.396 124.672 110.876 124.36 111.308 123.944L113.3 126.104C112.708 126.776 111.964 127.296 111.068 127.664C110.172 128.016 109.14 128.192 107.972 128.192ZM129.909 128.192C128.437 128.192 127.141 127.904 126.021 127.328C124.917 126.752 124.061 125.968 123.453 124.976C122.845 123.968 122.541 122.824 122.541 121.544C122.541 120.248 122.837 119.104 123.429 118.112C124.037 117.104 124.861 116.32 125.901 115.76C126.941 115.184 128.117 114.896 129.429 114.896C130.693 114.896 131.829 115.168 132.837 115.712C133.861 116.24 134.669 117.008 135.261 118.016C135.853 119.008 136.149 120.2 136.149 121.592C136.149 121.736 136.141 121.904 136.125 122.096C136.109 122.272 136.093 122.44 136.077 122.6H125.589V120.416H134.109L132.669 121.064C132.669 120.392 132.533 119.808 132.261 119.312C131.989 118.816 131.613 118.432 131.133 118.16C130.653 117.872 130.093 117.728 129.453 117.728C128.813 117.728 128.245 117.872 127.749 118.16C127.269 118.432 126.893 118.824 126.621 119.336C126.349 119.832 126.213 120.424 126.213 121.112V121.688C126.213 122.392 126.365 123.016 126.669 123.56C126.989 124.088 127.429 124.496 127.989 124.784C128.565 125.056 129.237 125.192 130.005 125.192C130.693 125.192 131.293 125.088 131.805 124.88C132.333 124.672 132.813 124.36 133.245 123.944L135.237 126.104C134.645 126.776 133.901 127.296 133.005 127.664C132.109 128.016 131.077 128.192 129.909 128.192ZM153.815 128.288C152.487 128.288 151.263 128.08 150.143 127.664C149.039 127.232 148.071 126.624 147.239 125.84C146.423 125.056 145.783 124.136 145.319 123.08C144.871 122.024 144.647 120.864 144.647 119.6C144.647 118.336 144.871 117.176 145.319 116.12C145.783 115.064 146.431 114.144 147.263 113.36C148.095 112.576 149.071 111.976 150.191 111.56C151.311 111.128 152.543 110.912 153.887 110.912C155.375 110.912 156.711 111.16 157.895 111.656C159.095 112.152 160.103 112.872 160.919 113.816L158.423 116.12C157.815 115.48 157.151 115.008 156.431 114.704C155.711 114.384 154.927 114.224 154.079 114.224C153.263 114.224 152.519 114.352 151.847 114.608C151.175 114.864 150.591 115.232 150.095 115.712C149.615 116.192 149.239 116.76 148.967 117.416C148.711 118.072 148.583 118.8 148.583 119.6C148.583 120.384 148.711 121.104 148.967 121.76C149.239 122.416 149.615 122.992 150.095 123.488C150.591 123.968 151.167 124.336 151.823 124.592C152.495 124.848 153.231 124.976 154.031 124.976C154.799 124.976 155.543 124.856 156.263 124.616C156.999 124.36 157.711 123.936 158.399 123.344L160.607 126.152C159.695 126.84 158.631 127.368 157.415 127.736C156.215 128.104 155.015 128.288 153.815 128.288ZM157.055 125.648V119.336H160.607V126.152L157.055 125.648ZM170.363 128.192C168.891 128.192 167.595 127.904 166.475 127.328C165.371 126.752 164.515 125.968 163.907 124.976C163.299 123.968 162.995 122.824 162.995 121.544C162.995 120.248 163.291 119.104 163.883 118.112C164.491 117.104 165.315 116.32 166.355 115.76C167.395 115.184 168.571 114.896 169.883 114.896C171.147 114.896 172.283 115.168 173.291 115.712C174.315 116.24 175.123 117.008 175.715 118.016C176.307 119.008 176.603 120.2 176.603 121.592C176.603 121.736 176.595 121.904 176.579 122.096C176.563 122.272 176.547 122.44 176.531 122.6H166.043V120.416H174.563L173.123 121.064C173.123 120.392 172.987 119.808 172.715 119.312C172.443 118.816 172.067 118.432 171.587 118.16C171.107 117.872 170.547 117.728 169.907 117.728C169.267 117.728 168.699 117.872 168.203 118.16C167.723 118.432 167.347 118.824 167.075 119.336C166.803 119.832 166.667 120.424 166.667 121.112V121.688C166.667 122.392 166.819 123.016 167.123 123.56C167.443 124.088 167.883 124.496 168.443 124.784C169.019 125.056 169.691 125.192 170.459 125.192C171.147 125.192 171.747 125.088 172.259 124.88C172.787 124.672 173.267 124.36 173.699 123.944L175.691 126.104C175.099 126.776 174.355 127.296 173.459 127.664C172.563 128.016 171.531 128.192 170.363 128.192ZM183.439 128.192C182.335 128.192 181.271 128.064 180.247 127.808C179.239 127.536 178.439 127.2 177.847 126.8L179.095 124.112C179.687 124.48 180.383 124.784 181.183 125.024C181.999 125.248 182.799 125.36 183.583 125.36C184.447 125.36 185.055 125.256 185.407 125.048C185.775 124.84 185.959 124.552 185.959 124.184C185.959 123.88 185.815 123.656 185.527 123.512C185.255 123.352 184.887 123.232 184.423 123.152C183.959 123.072 183.447 122.992 182.887 122.912C182.343 122.832 181.791 122.728 181.231 122.6C180.671 122.456 180.159 122.248 179.695 121.976C179.231 121.704 178.855 121.336 178.567 120.872C178.295 120.408 178.159 119.808 178.159 119.072C178.159 118.256 178.391 117.536 178.855 116.912C179.335 116.288 180.023 115.8 180.919 115.448C181.815 115.08 182.887 114.896 184.135 114.896C185.015 114.896 185.911 114.992 186.823 115.184C187.735 115.376 188.495 115.656 189.103 116.024L187.855 118.688C187.231 118.32 186.599 118.072 185.959 117.944C185.335 117.8 184.727 117.728 184.135 117.728C183.303 117.728 182.695 117.84 182.311 118.064C181.927 118.288 181.735 118.576 181.735 118.928C181.735 119.248 181.871 119.488 182.143 119.648C182.431 119.808 182.807 119.936 183.271 120.032C183.735 120.128 184.239 120.216 184.783 120.296C185.343 120.36 185.903 120.464 186.463 120.608C187.023 120.752 187.527 120.96 187.975 121.232C188.439 121.488 188.815 121.848 189.103 122.312C189.391 122.76 189.535 123.352 189.535 124.088C189.535 124.888 189.295 125.6 188.815 126.224C188.335 126.832 187.639 127.312 186.727 127.664C185.831 128.016 184.735 128.192 183.439 128.192ZM197.125 128.192C195.605 128.192 194.421 127.808 193.573 127.04C192.725 126.256 192.301 125.096 192.301 123.56V112.232H196.045V123.512C196.045 124.056 196.189 124.48 196.477 124.784C196.765 125.072 197.157 125.216 197.653 125.216C198.245 125.216 198.749 125.056 199.165 124.736L200.173 127.376C199.789 127.648 199.325 127.856 198.781 128C198.253 128.128 197.701 128.192 197.125 128.192ZM190.309 118.256V115.376H199.261V118.256H190.309ZM210.195 128V125.48L209.955 124.928V120.416C209.955 119.616 209.707 118.992 209.211 118.544C208.731 118.096 207.987 117.872 206.979 117.872C206.291 117.872 205.611 117.984 204.939 118.208C204.283 118.416 203.723 118.704 203.259 119.072L201.915 116.456C202.619 115.96 203.467 115.576 204.459 115.304C205.451 115.032 206.459 114.896 207.483 114.896C209.451 114.896 210.979 115.36 212.067 116.288C213.155 117.216 213.699 118.664 213.699 120.632V128H210.195ZM206.259 128.192C205.251 128.192 204.387 128.024 203.667 127.688C202.947 127.336 202.395 126.864 202.011 126.272C201.627 125.68 201.435 125.016 201.435 124.28C201.435 123.512 201.619 122.84 201.987 122.264C202.371 121.688 202.971 121.24 203.787 120.92C204.603 120.584 205.667 120.416 206.979 120.416H210.411V122.6H207.387C206.507 122.6 205.899 122.744 205.563 123.032C205.243 123.32 205.083 123.68 205.083 124.112C205.083 124.592 205.267 124.976 205.635 125.264C206.019 125.536 206.539 125.672 207.195 125.672C207.819 125.672 208.379 125.528 208.875 125.24C209.371 124.936 209.731 124.496 209.955 123.92L210.531 125.648C210.259 126.48 209.763 127.112 209.043 127.544C208.323 127.976 207.395 128.192 206.259 128.192ZM209.667 113.504C209.251 113.504 208.883 113.432 208.563 113.288C208.243 113.128 207.955 112.952 207.699 112.76C207.443 112.552 207.203 112.376 206.979 112.232C206.755 112.072 206.531 111.992 206.307 111.992C205.987 111.992 205.723 112.112 205.515 112.352C205.307 112.576 205.187 112.904 205.155 113.336H203.259C203.291 112.264 203.555 111.416 204.051 110.792C204.547 110.152 205.219 109.832 206.067 109.832C206.483 109.832 206.851 109.912 207.171 110.072C207.491 110.216 207.779 110.392 208.035 110.6C208.307 110.808 208.555 110.992 208.779 111.152C209.003 111.296 209.219 111.368 209.427 111.368C209.763 111.368 210.035 111.256 210.243 111.032C210.451 110.792 210.563 110.472 210.579 110.072H212.475C212.459 111.096 212.195 111.928 211.683 112.568C211.187 113.192 210.515 113.504 209.667 113.504ZM223.325 128.192C221.949 128.192 220.725 127.904 219.653 127.328C218.597 126.752 217.757 125.968 217.133 124.976C216.525 123.968 216.221 122.824 216.221 121.544C216.221 120.248 216.525 119.104 217.133 118.112C217.757 117.104 218.597 116.32 219.653 115.76C220.725 115.184 221.949 114.896 223.325 114.896C224.685 114.896 225.901 115.184 226.973 115.76C228.045 116.32 228.885 117.096 229.493 118.088C230.101 119.08 230.405 120.232 230.405 121.544C230.405 122.824 230.101 123.968 229.493 124.976C228.885 125.968 228.045 126.752 226.973 127.328C225.901 127.904 224.685 128.192 223.325 128.192ZM223.325 125.12C223.949 125.12 224.509 124.976 225.005 124.688C225.501 124.4 225.893 123.992 226.181 123.464C226.469 122.92 226.613 122.28 226.613 121.544C226.613 120.792 226.469 120.152 226.181 119.624C225.893 119.096 225.501 118.688 225.005 118.4C224.509 118.112 223.949 117.968 223.325 117.968C222.701 117.968 222.141 118.112 221.645 118.4C221.149 118.688 220.749 119.096 220.445 119.624C220.157 120.152 220.013 120.792 220.013 121.544C220.013 122.28 220.157 122.92 220.445 123.464C220.749 123.992 221.149 124.4 221.645 124.688C222.141 124.976 222.701 125.12 223.325 125.12Z" fill="black"/>
<g filter="url(#filter0_d_47_315)">
<path d="M575.428 156.494L575.428 242.578L499.459 281.242L448.157 256.483L530.392 216.882L530.429 179.694L498.925 164.537L407.293 208.393L407.365 296.089L499.993 339.712L575.163 301.447L575.394 349.76L499.869 388.355L356.504 319.507L356.738 184.179L499.282 116.027L575.428 156.494Z" fill="#961236"/>
<path d="M450.666 364.723L499.987 339.745L549.539 362.933L500.234 388.5L450.666 364.723Z" fill="#67031E"/>
<path d="M407.27 296.201L407.46 343.909L356.504 319.29V271.59L407.27 296.201Z" fill="#67031E"/>
<path d="M499.27 116.081L547.119 141.453L498.893 164.807L448.226 140.511L499.27 116.081Z" fill="#550317"/>
<path d="M407.187 208.527L356.84 232.771L356.488 184.318L407.214 160.054L407.187 208.527Z" fill="#C11A51"/>
<path d="M575.428 242.398L530.515 265.726L530.515 216.843L575.428 194.374L575.428 242.398Z" fill="#550317"/>
</g>
<defs>
<filter id="filter0_d_47_315" x="352.488" y="116.027" width="226.94" height="280.473" filterUnits="userSpaceOnUse" color-interpolation-filters="sRGB">
<feFlood flood-opacity="0" result="BackgroundImageFix"/>
<feColorMatrix in="SourceAlpha" type="matrix" values="0 0 0 0 0 0 0 0 0 0 0 0 0 0 0 0 0 0 127 0" result="hardAlpha"/>
<feOffset dy="4"/>
<feGaussianBlur stdDeviation="2"/>
<feComposite in2="hardAlpha" operator="out"/>
<feColorMatrix type="matrix" values="0 0 0 0 0 0 0 0 0 0 0 0 0 0 0 0 0 0 0.25 0"/>
<feBlend mode="normal" in2="BackgroundImageFix" result="effect1_dropShadow_47_315"/>
<feBlend mode="normal" in="SourceGraphic" in2="effect1_dropShadow_47_315" result="shape"/>
</filter>
</defs>
</svg>
