<svg width="63" height="100" viewBox="0 0 63 100" fill="none" xmlns="http://www.w3.org/2000/svg">
<path d="M25.0847 0C25.9164 0 26.7139 0.32924 27.3019 0.915291C27.89 1.50134 28.2203 2.2962 28.2203 3.125V18.75H47.0339V3.125C47.0339 2.2962 47.3643 1.50134 47.9523 0.915291C48.5403 0.32924 49.3379 0 50.1695 0C51.0011 0 51.7987 0.32924 52.3867 0.915291C52.9747 1.50134 53.3051 2.2962 53.3051 3.125V18.75H59.5763C60.4079 18.75 61.2054 19.0792 61.7935 19.6653C62.3815 20.2513 62.7119 21.0462 62.7119 21.875V40.625C62.7119 46.4266 60.3994 51.9906 56.2831 56.093C52.1668 60.1953 46.584 62.5 40.7627 62.5C40.7502 65.2125 40.7 67.7812 40.5119 70.125C40.2547 73.3375 39.7217 76.3938 38.5239 79.025C37.3095 81.8078 35.1579 84.0803 32.4408 85.45C29.6314 86.875 26.1446 87.5 21.9492 87.5C15.6905 87.5 11.8525 89.5625 9.56983 91.9875C7.50886 94.1566 6.33281 97.0133 6.27119 100H0C0 96.15 1.45491 91.4562 4.99814 87.7C8.61661 83.875 14.1792 81.25 21.9492 81.25C25.5927 81.25 27.982 80.7 29.5875 79.8812C31.0988 79.1125 32.0959 78.0062 32.8108 76.4437C33.5697 74.7812 34.0212 72.5625 34.2532 69.6312C34.4225 67.5062 34.4727 65.1438 34.4853 62.5C28.6651 62.4983 23.0838 60.1929 18.9689 56.0908C14.854 51.9886 12.5424 46.4255 12.5424 40.625V21.875C12.5424 21.0462 12.8727 20.2513 13.4608 19.6653C14.0488 19.0792 14.8464 18.75 15.678 18.75H21.9492V3.125C21.9492 2.2962 22.2795 1.50134 22.8675 0.915291C23.4556 0.32924 24.2531 0 25.0847 0ZM18.8136 25V40.625C18.8136 44.769 20.4653 48.7433 23.4055 51.6735C26.3457 54.6038 30.3335 56.25 34.4915 56.25H40.7627C44.9208 56.25 48.9085 54.6038 51.8487 51.6735C54.7889 48.7433 56.4407 44.769 56.4407 40.625V25H18.8136Z" fill="#550317"/>
</svg>
