<svg width="20" height="15" viewBox="0 0 20 15" fill="none" xmlns="http://www.w3.org/2000/svg">
<path d="M0 2.56044C0 1.93229 0.263392 1.32988 0.732233 0.885711C1.20107 0.441546 1.83696 0.192017 2.5 0.192017H17.5C18.163 0.192017 18.7989 0.441546 19.2678 0.885711C19.7366 1.32988 20 1.93229 20 2.56044V12.0341C20 12.6623 19.7366 13.2647 19.2678 13.7088C18.7989 14.153 18.163 14.4025 17.5 14.4025H2.5C1.83696 14.4025 1.20107 14.153 0.732233 13.7088C0.263392 13.2647 0 12.6623 0 12.0341V2.56044ZM2.5 1.37623C2.16848 1.37623 1.85054 1.50099 1.61612 1.72307C1.3817 1.94516 1.25 2.24637 1.25 2.56044V2.81741L10 7.7911L18.75 2.81741V2.56044C18.75 2.24637 18.6183 1.94516 18.3839 1.72307C18.1495 1.50099 17.8315 1.37623 17.5 1.37623H2.5ZM18.75 4.1982L12.865 7.5436L18.75 10.9743V4.1982ZM18.7075 12.3408L11.6575 8.23044L10 9.17189L8.3425 8.23044L1.2925 12.3396C1.36353 12.5916 1.5204 12.8144 1.73874 12.9733C1.95708 13.1321 2.22468 13.2183 2.5 13.2183H17.5C17.7752 13.2184 18.0426 13.1324 18.261 12.9737C18.4793 12.8151 18.6362 12.5926 18.7075 12.3408ZM1.25 10.9743L7.135 7.5436L1.25 4.1982V10.9743Z" fill="white"/>
</svg>
