<svg width="181" height="180" viewBox="0 0 181 180" fill="none" xmlns="http://www.w3.org/2000/svg">
<path d="M78.75 28.125C78.75 43.658 66.158 56.25 50.625 56.25C35.092 56.25 22.5 43.658 22.5 28.125C22.5 12.592 35.092 0 50.625 0C66.158 0 78.75 12.592 78.75 28.125Z" fill="#808080"/>
<path d="M126.283 73.719C124.117 72.6362 121.502 73.0607 119.79 74.7727L78.0506 127.762L48.1375 96.5699C45.9065 95.0825 42.9358 95.3767 41.0399 97.2727L0.017334 146.25V168.75C0.017334 174.963 5.05413 180 11.2673 180H168.767C174.981 180 180.017 174.963 180.017 168.75V118.125L126.283 73.719Z" fill="#808080"/>
</svg>
