<svg width="101" height="75" viewBox="0 0 101 75" fill="none" xmlns="http://www.w3.org/2000/svg">
<path d="M37.5 37.057C42.4728 37.057 47.2419 35.1049 50.7583 31.6301C54.2746 28.1554 56.25 23.4426 56.25 18.5285C56.25 13.6144 54.2746 8.90164 50.7583 5.42688C47.2419 1.95211 42.4728 0 37.5 0C32.5272 0 27.7581 1.95211 24.2417 5.42688C20.7254 8.90164 18.75 13.6144 18.75 18.5285C18.75 23.4426 20.7254 28.1554 24.2417 31.6301C27.7581 35.1049 32.5272 37.057 37.5 37.057ZM50 18.5285C50 21.8046 48.683 24.9464 46.3388 27.2629C43.9946 29.5794 40.8152 30.8808 37.5 30.8808C34.1848 30.8808 31.0054 29.5794 28.6612 27.2629C26.317 24.9464 25 21.8046 25 18.5285C25 15.2525 26.317 12.1106 28.6612 9.79409C31.0054 7.47757 34.1848 6.17617 37.5 6.17617C40.8152 6.17617 43.9946 7.47757 46.3388 9.79409C48.683 12.1106 50 15.2525 50 18.5285ZM75 67.9379C75 74.114 68.75 74.114 68.75 74.114H6.25C6.25 74.114 0 74.114 0 67.9379C0 61.7617 6.25 43.2332 37.5 43.2332C68.75 43.2332 75 61.7617 75 67.9379ZM68.75 67.9132C68.7438 66.3938 67.7875 61.8235 63.55 57.636C59.475 53.6092 51.8063 49.4094 37.5 49.4094C23.1875 49.4094 15.525 53.6092 11.45 57.636C7.2125 61.8235 6.2625 66.3938 6.25 67.9132H68.75Z" fill="white"/>
<path fill-rule="evenodd" clip-rule="evenodd" d="M99.0875 19.4302C99.3786 19.7171 99.6095 20.0579 99.767 20.433C99.9245 20.8082 100.006 21.2104 100.006 21.6166C100.006 22.0228 99.9245 22.425 99.767 22.8002C99.6095 23.1753 99.3786 23.5161 99.0875 23.803L80.3375 42.3315C80.0473 42.6191 79.7024 42.8472 79.3227 43.0029C78.9431 43.1586 78.5361 43.2387 78.125 43.2387C77.714 43.2387 77.307 43.1586 76.9273 43.0029C76.5477 42.8472 76.2028 42.6191 75.9125 42.3315L66.5375 33.0672C65.9507 32.4874 65.6211 31.7009 65.6211 30.8809C65.6211 30.0608 65.9507 29.2743 66.5375 28.6945C67.1243 28.1146 67.9202 27.7889 68.75 27.7889C69.5799 27.7889 70.3757 28.1146 70.9625 28.6945L78.125 35.7786L94.6625 19.4302C94.9528 19.1427 95.2977 18.9145 95.6773 18.7588C96.057 18.6031 96.464 18.523 96.875 18.523C97.2861 18.523 97.6931 18.6031 98.0727 18.7588C98.4524 18.9145 98.7973 19.1427 99.0875 19.4302Z" fill="white"/>
</svg>
