<svg width="30" height="30" viewBox="0 0 30 30" fill="none" xmlns="http://www.w3.org/2000/svg">
<path d="M15 0C10.9294 0 10.4175 0.0182451 8.81813 0.0875763C7.21875 0.160557 6.12938 0.40504 5.175 0.766293C4.17393 1.13269 3.26717 1.70742 2.51813 2.45031C1.75514 3.17956 1.16458 4.06179 0.7875 5.03564C0.41625 5.96249 0.163125 7.02435 0.09 8.57518C0.01875 10.1351 0 10.6314 0 14.5979C0 18.5607 0.01875 19.057 0.09 20.6133C0.165 22.1678 0.41625 23.2278 0.7875 24.1565C1.17188 25.1162 1.68375 25.9299 2.51813 26.7418C3.35063 27.5537 4.18688 28.0536 5.17313 28.4258C6.12938 28.7871 7.21688 29.0334 8.81438 29.1045C10.4156 29.1739 10.9256 29.1921 15 29.1921C19.0744 29.1921 19.5825 29.1739 21.1838 29.1045C22.7794 29.0315 23.8725 28.7871 24.8269 28.4258C25.8273 28.0592 26.7334 27.4845 27.4819 26.7418C28.3163 25.9299 28.8281 25.1162 29.2125 24.1565C29.5819 23.2278 29.835 22.1678 29.91 20.6133C29.9813 19.057 30 18.5607 30 14.5961C30 10.6314 29.9813 10.1351 29.91 8.577C29.835 7.02435 29.5819 5.96249 29.2125 5.03564C28.8355 4.06176 28.2449 3.17952 27.4819 2.45031C26.7331 1.70715 25.8262 1.13237 24.825 0.766293C23.8688 0.40504 22.7775 0.158732 21.1819 0.0875763C19.5806 0.0182451 19.0725 0 14.9963 0H15.0019H15ZM13.6556 2.63094H15.0019C19.0069 2.63094 19.4813 2.64371 21.0619 2.71487C22.5244 2.77872 23.3194 3.01773 23.8481 3.2166C24.5475 3.48116 25.0481 3.79862 25.5731 4.30948C26.0981 4.82035 26.4225 5.30566 26.6944 5.98803C26.9006 6.50072 27.1444 7.27431 27.21 8.69742C27.2831 10.2355 27.2981 10.6971 27.2981 14.5924C27.2981 18.4877 27.2831 18.9511 27.21 20.4892C27.1444 21.9123 26.8988 22.6841 26.6944 23.1986C26.4539 23.8324 26.0701 24.4054 25.5712 24.8753C25.0462 25.3862 24.5475 25.7018 23.8463 25.9664C23.3213 26.1671 22.5263 26.4043 21.0619 26.4699C19.4813 26.5393 19.0069 26.5557 15.0019 26.5557C10.9969 26.5557 10.5206 26.5393 8.94 26.4699C7.4775 26.4043 6.68438 26.1671 6.15563 25.9664C5.50406 25.7327 4.91461 25.3599 4.43062 24.8753C3.93141 24.4047 3.54698 23.8311 3.30563 23.1968C3.10125 22.6841 2.85563 21.9105 2.79 20.4874C2.71875 18.9493 2.70375 18.4877 2.70375 14.5888C2.70375 10.6916 2.71875 10.2318 2.79 8.69377C2.8575 7.27066 3.10125 6.49707 3.3075 5.98256C3.57938 5.30202 3.90562 4.81487 4.43062 4.30401C4.95563 3.79315 5.45438 3.47751 6.15563 3.21296C6.68438 3.01226 7.4775 2.77507 8.94 2.70939C10.3238 2.64736 10.86 2.62911 13.6556 2.62729V2.63094Z" fill="#550317"/>
<path d="M13.7966 3.8956H15.0008C18.5834 3.8956 19.0077 3.90702 20.4216 3.97068C21.7298 4.02781 22.441 4.24165 22.9139 4.41957C23.5395 4.65625 23.9873 4.94027 24.457 5.39731C24.9266 5.85435 25.2167 6.28854 25.4599 6.89902C25.6444 7.3577 25.8625 8.04979 25.9212 9.32298C25.9866 10.699 26 11.112 26 14.5969C26 18.0819 25.9866 18.4965 25.9212 19.8725C25.8625 21.1457 25.6428 21.8361 25.4599 22.2965C25.2448 22.8634 24.9015 23.3761 24.4553 23.7965C23.9857 24.2536 23.5395 24.536 22.9123 24.7726C22.4426 24.9522 21.7315 25.1644 20.4216 25.2232C19.0077 25.2852 18.5834 25.2999 15.0008 25.2999C11.4183 25.2999 10.9923 25.2852 9.57841 25.2232C8.27018 25.1644 7.56072 24.9522 7.08775 24.7726C6.50492 24.5636 5.97765 24.23 5.54471 23.7965C5.09816 23.3755 4.75428 22.8623 4.53839 22.2948C4.35557 21.8361 4.13585 21.1441 4.07715 19.8709C4.01342 18.4948 4 18.0819 4 14.5937C4 11.1071 4.01342 10.6957 4.07715 9.31971C4.13753 8.04652 4.35557 7.35443 4.54006 6.89412C4.78326 6.28528 5.07509 5.84945 5.54471 5.39241C6.01433 4.93537 6.46047 4.65298 7.08775 4.4163C7.56072 4.23675 8.27018 4.02455 9.57841 3.96579C10.8162 3.91029 11.2959 3.89397 13.7966 3.89233V3.8956ZM22.1625 6.06329C21.9511 6.06329 21.7417 6.10382 21.5464 6.18257C21.351 6.26132 21.1735 6.37674 21.024 6.52225C20.8745 6.66776 20.7559 6.8405 20.675 7.03062C20.5941 7.22074 20.5524 7.42451 20.5524 7.63029C20.5524 7.83607 20.5941 8.03984 20.675 8.22995C20.7559 8.42007 20.8745 8.59282 21.024 8.73833C21.1735 8.88384 21.351 8.99926 21.5464 9.07801C21.7417 9.15676 21.9511 9.19729 22.1625 9.19729C22.5896 9.19729 22.9991 9.0322 23.3011 8.73833C23.603 8.44446 23.7727 8.04588 23.7727 7.63029C23.7727 7.21469 23.603 6.81612 23.3011 6.52225C22.9991 6.22838 22.5896 6.06329 22.1625 6.06329ZM15.0008 7.89472C14.0869 7.88084 13.1792 8.04405 12.3307 8.37485C11.4822 8.70564 10.7097 9.19741 10.0583 9.82152C9.40698 10.4456 8.88969 11.1896 8.53659 12.0102C8.1835 12.8307 8.00166 13.7114 8.00166 14.601C8.00166 15.4906 8.1835 16.3713 8.53659 17.1918C8.88969 18.0124 9.40698 18.7564 10.0583 19.3805C10.7097 20.0046 11.4822 20.4964 12.3307 20.8272C13.1792 21.158 14.0869 21.3212 15.0008 21.3073C16.8098 21.2798 18.5351 20.5612 19.8043 19.3065C21.0736 18.0518 21.785 16.3617 21.785 14.601C21.785 12.8403 21.0736 11.1502 19.8043 9.8955C18.5351 8.64082 16.8098 7.92219 15.0008 7.89472ZM15.0008 10.2469C16.1872 10.2469 17.3249 10.7055 18.1638 11.5219C19.0027 12.3383 19.474 13.4456 19.474 14.6002C19.474 15.7548 19.0027 16.862 18.1638 17.6785C17.3249 18.4949 16.1872 18.9535 15.0008 18.9535C13.8145 18.9535 12.6767 18.4949 11.8379 17.6785C10.999 16.862 10.5277 15.7548 10.5277 14.6002C10.5277 13.4456 10.999 12.3383 11.8379 11.5219C12.6767 10.7055 13.8145 10.2469 15.0008 10.2469Z" fill="#550317"/>
</svg>
