<svg width="40" height="40" viewBox="0 0 40 40" fill="none" xmlns="http://www.w3.org/2000/svg">
<path d="M20 0.192383C14.5725 0.192383 13.89 0.21671 11.7575 0.309151C9.625 0.406458 8.1725 0.732437 6.9 1.21411C5.56523 1.70263 4.35623 2.46894 3.3575 3.45947C2.34019 4.4318 1.55277 5.6081 1.05 6.90657C0.555 8.14236 0.2175 9.55818 0.12 11.626C0.025 13.7059 0 14.3676 0 19.6562C0 24.94 0.025 25.6017 0.12 27.6767C0.22 29.7494 0.555 31.1628 1.05 32.401C1.5625 33.6806 2.245 34.7656 3.3575 35.8481C4.4675 36.9306 5.5825 37.5972 6.8975 38.0935C8.1725 38.5751 9.6225 38.9035 11.7525 38.9984C13.8875 39.0909 14.5675 39.1152 20 39.1152C25.4325 39.1152 26.11 39.0909 28.245 38.9984C30.3725 38.9011 31.83 38.5751 33.1025 38.0935C34.4364 37.6047 35.6445 36.8384 36.6425 35.8481C37.755 34.7656 38.4375 33.6806 38.95 32.401C39.4425 31.1628 39.78 29.7494 39.88 27.6767C39.975 25.6017 40 24.94 40 19.6538C40 14.3676 39.975 13.7059 39.88 11.6284C39.78 9.55818 39.4425 8.14236 38.95 6.90657C38.4473 5.60807 37.6599 4.43175 36.6425 3.45947C35.6441 2.46858 34.435 1.70221 33.1 1.21411C31.825 0.732437 30.37 0.404026 28.2425 0.309151C26.1075 0.21671 25.43 0.192383 19.995 0.192383H20.0025H20ZM18.2075 3.7003H20.0025C25.3425 3.7003 25.975 3.71733 28.0825 3.8122C30.0325 3.89735 31.0925 4.21603 31.7975 4.48119C32.73 4.83393 33.3975 5.25721 34.0975 5.93836C34.7975 6.61951 35.23 7.2666 35.5925 8.17642C35.8675 8.86 36.1925 9.89146 36.28 11.7889C36.3775 13.8397 36.3975 14.4552 36.3975 19.6489C36.3975 24.8427 36.3775 25.4606 36.28 27.5113C36.1925 29.4088 35.865 30.4378 35.5925 31.1238C35.2719 31.9689 34.7601 32.7329 34.095 33.3595C33.395 34.0406 32.73 34.4615 31.795 34.8142C31.095 35.0818 30.035 35.3981 28.0825 35.4856C25.975 35.5781 25.3425 35.6 20.0025 35.6C14.6625 35.6 14.0275 35.5781 11.92 35.4856C9.97 35.3981 8.9125 35.0818 8.2075 34.8142C7.33875 34.5026 6.55281 34.0055 5.9075 33.3595C5.24188 32.7319 4.72931 31.9671 4.4075 31.1214C4.135 30.4378 3.8075 29.4064 3.72 27.5089C3.625 25.4581 3.605 24.8427 3.605 19.6441C3.605 14.4479 3.625 13.8348 3.72 11.7841C3.81 9.88659 4.135 8.85514 4.41 8.16912C4.7725 7.26174 5.2075 6.61221 5.9075 5.93106C6.6075 5.24991 7.2725 4.82906 8.2075 4.47632C8.9125 4.20873 9.97 3.89248 11.92 3.80491C13.765 3.72219 14.48 3.69787 18.2075 3.69544V3.7003Z" fill="#C11A51" fill-opacity="0.44"/>
<path d="M18.3955 5.38643H20.0012C24.7779 5.38643 25.3436 5.40167 27.2288 5.48655C28.9731 5.56272 29.9213 5.84783 30.5519 6.08505C31.3861 6.40063 31.9832 6.77932 32.6093 7.38871C33.2355 7.9981 33.6224 8.57702 33.9466 9.391C34.1926 10.0026 34.4833 10.9254 34.5616 12.6229C34.6488 14.4576 34.6667 15.0083 34.6667 19.6549C34.6667 24.3015 34.6488 24.8543 34.5616 26.689C34.4833 28.3865 34.1904 29.3072 33.9466 29.9209C33.6598 30.6769 33.202 31.3605 32.6071 31.921C31.9809 32.5304 31.3861 32.9069 30.5497 33.2225C29.9236 33.4619 28.9754 33.7448 27.2288 33.8232C25.3436 33.9059 24.7779 33.9255 20.0012 33.9255C15.2245 33.9255 14.6564 33.9059 12.7713 33.8232C11.027 33.7448 10.081 33.4619 9.45037 33.2225C8.67326 32.9437 7.97023 32.499 7.39299 31.921C6.79758 31.3596 6.33908 30.6754 6.05122 29.9187C5.80747 29.3072 5.51451 28.3844 5.43624 26.6868C5.35126 24.8521 5.33337 24.3015 5.33337 19.6505C5.33337 15.0017 5.35126 14.4533 5.43624 12.6186C5.51675 10.921 5.80747 9.99821 6.05346 9.38447C6.37772 8.57267 6.76683 7.99157 7.39299 7.38218C8.01915 6.77279 8.614 6.39628 9.45037 6.0807C10.081 5.8413 11.027 5.55837 12.7713 5.48002C14.4216 5.40602 15.0612 5.38426 18.3955 5.38208V5.38643ZM29.5501 8.27668C29.2682 8.27668 28.989 8.33072 28.7285 8.43572C28.4681 8.54072 28.2314 8.69462 28.0321 8.88863C27.8327 9.08265 27.6746 9.31297 27.5667 9.56646C27.4588 9.81995 27.4033 10.0916 27.4033 10.366C27.4033 10.6404 27.4588 10.9121 27.5667 11.1656C27.6746 11.4191 27.8327 11.6494 28.0321 11.8434C28.2314 12.0374 28.4681 12.1913 28.7285 12.2963C28.989 12.4013 29.2682 12.4554 29.5501 12.4554C30.1195 12.4554 30.6655 12.2352 31.0681 11.8434C31.4707 11.4516 31.6969 10.9201 31.6969 10.366C31.6969 9.81189 31.4707 9.28046 31.0681 8.88863C30.6655 8.49681 30.1195 8.27668 29.5501 8.27668ZM20.0012 10.7186C18.7825 10.7001 17.5723 10.9177 16.4409 11.3588C15.3096 11.7998 14.2797 12.4555 13.4112 13.2877C12.5427 14.1198 11.853 15.1118 11.3822 16.2058C10.9114 17.2999 10.6689 18.4742 10.6689 19.6603C10.6689 20.8464 10.9114 22.0207 11.3822 23.1148C11.853 24.2088 12.5427 25.2008 13.4112 26.0329C14.2797 26.8651 15.3096 27.5208 16.4409 27.9618C17.5723 28.4029 18.7825 28.6205 20.0012 28.602C22.4131 28.5654 24.7135 27.6072 26.4058 25.9343C28.0982 24.2614 29.0467 22.0079 29.0467 19.6603C29.0467 17.3127 28.0982 15.0592 26.4058 13.3863C24.7135 11.7134 22.4131 10.7552 20.0012 10.7186ZM20.0012 13.8548C21.583 13.8548 23.1 14.4663 24.2185 15.5549C25.337 16.6434 25.9653 18.1198 25.9653 19.6592C25.9653 21.1986 25.337 22.675 24.2185 23.7636C23.1 24.8521 21.583 25.4637 20.0012 25.4637C18.4194 25.4637 16.9024 24.8521 15.7839 23.7636C14.6654 22.675 14.037 21.1986 14.037 19.6592C14.037 18.1198 14.6654 16.6434 15.7839 15.5549C16.9024 14.4663 18.4194 13.8548 20.0012 13.8548Z" fill="#C11A51" fill-opacity="0.44"/>
</svg>
