<svg width="20" height="20" viewBox="0 0 20 20" fill="none" xmlns="http://www.w3.org/2000/svg">
<path d="M10 0C7.28625 0 6.945 0.0125 5.87875 0.06C4.8125 0.11 4.08625 0.2775 3.45 0.525C2.78262 0.776024 2.17811 1.16978 1.67875 1.67875C1.1701 2.17837 0.776384 2.7828 0.525 3.45C0.2775 4.085 0.10875 4.8125 0.06 5.875C0.0125 6.94375 0 7.28375 0 10.0013C0 12.7163 0.0125 13.0563 0.06 14.1225C0.11 15.1875 0.2775 15.9137 0.525 16.55C0.78125 17.2075 1.1225 17.765 1.67875 18.3212C2.23375 18.8775 2.79125 19.22 3.44875 19.475C4.08625 19.7225 4.81125 19.8912 5.87625 19.94C6.94375 19.9875 7.28375 20 10 20C12.7162 20 13.055 19.9875 14.1225 19.94C15.1863 19.89 15.915 19.7225 16.5513 19.475C17.2182 19.2239 17.8223 18.8301 18.3212 18.3212C18.8775 17.765 19.2187 17.2075 19.475 16.55C19.7212 15.9137 19.89 15.1875 19.94 14.1225C19.9875 13.0563 20 12.7163 20 10C20 7.28375 19.9875 6.94375 19.94 5.87625C19.89 4.8125 19.7212 4.085 19.475 3.45C19.2236 2.78278 18.8299 2.17834 18.3212 1.67875C17.822 1.16959 17.2175 0.775807 16.55 0.525C15.9125 0.2775 15.185 0.10875 14.1212 0.06C13.0537 0.0125 12.715 0 9.9975 0H10.0013H10ZM9.10375 1.8025H10.0013C12.6713 1.8025 12.9875 1.81125 14.0412 1.86C15.0162 1.90375 15.5462 2.0675 15.8987 2.20375C16.365 2.385 16.6987 2.6025 17.0487 2.9525C17.3987 3.3025 17.615 3.635 17.7963 4.1025C17.9338 4.45375 18.0963 4.98375 18.14 5.95875C18.1887 7.0125 18.1987 7.32875 18.1987 9.9975C18.1987 12.6663 18.1887 12.9837 18.14 14.0375C18.0963 15.0125 17.9325 15.5413 17.7963 15.8938C17.6359 16.3279 17.38 16.7205 17.0475 17.0425C16.6975 17.3925 16.365 17.6088 15.8975 17.79C15.5475 17.9275 15.0175 18.09 14.0412 18.135C12.9875 18.1825 12.6713 18.1938 10.0013 18.1938C7.33125 18.1938 7.01375 18.1825 5.96 18.135C4.985 18.09 4.45625 17.9275 4.10375 17.79C3.66937 17.6299 3.27641 17.3745 2.95375 17.0425C2.62094 16.72 2.36465 16.3271 2.20375 15.8925C2.0675 15.5412 1.90375 15.0112 1.86 14.0363C1.8125 12.9825 1.8025 12.6663 1.8025 9.995C1.8025 7.325 1.8125 7.01 1.86 5.95625C1.905 4.98125 2.0675 4.45125 2.205 4.09875C2.38625 3.6325 2.60375 3.29875 2.95375 2.94875C3.30375 2.59875 3.63625 2.3825 4.10375 2.20125C4.45625 2.06375 4.985 1.90125 5.96 1.85625C6.8825 1.81375 7.24 1.80125 9.10375 1.8V1.8025Z" fill="white"/>
<path d="M9.19769 2.66898H10.0005C12.3889 2.66898 12.6718 2.67681 13.6144 2.72043C14.4865 2.75957 14.9606 2.90607 15.2759 3.02796C15.693 3.19012 15.9915 3.3847 16.3046 3.69783C16.6177 4.01096 16.8111 4.30843 16.9733 4.72668C17.0962 5.04093 17.2416 5.51509 17.2807 6.38737C17.3243 7.33011 17.3333 7.61304 17.3333 10.0006C17.3333 12.3882 17.3243 12.6723 17.2807 13.615C17.2416 14.4873 17.0951 14.9604 16.9733 15.2757C16.8298 15.6642 16.6009 16.0154 16.3035 16.3034C15.9904 16.6166 15.693 16.81 15.2748 16.9722C14.9617 17.0952 14.4876 17.2406 13.6144 17.2809C12.6718 17.3234 12.3889 17.3334 10.0005 17.3334C7.61217 17.3334 7.32816 17.3234 6.38557 17.2809C5.51342 17.2406 5.04044 17.0952 4.72513 16.9722C4.33657 16.829 3.98506 16.6004 3.69643 16.3034C3.39873 16.015 3.16948 15.6634 3.02555 15.2746C2.90367 14.9604 2.7572 14.4862 2.71806 13.6139C2.67557 12.6712 2.66663 12.3882 2.66663 9.9984C2.66663 7.60969 2.67557 7.32787 2.71806 6.38514C2.75831 5.51285 2.90367 5.03869 3.02667 4.72332C3.1888 4.30619 3.38335 4.0076 3.69643 3.69448C4.00951 3.38135 4.30694 3.18788 4.72513 3.02573C5.04044 2.90271 5.51342 2.75733 6.38557 2.71707C7.21075 2.67905 7.53054 2.66787 9.19769 2.66675V2.66898ZM14.775 4.1541C14.634 4.1541 14.4944 4.18187 14.3642 4.23583C14.234 4.28978 14.1156 4.36886 14.016 4.46855C13.9163 4.56824 13.8372 4.68659 13.7833 4.81684C13.7293 4.94709 13.7016 5.0867 13.7016 5.22768C13.7016 5.36867 13.7293 5.50827 13.7833 5.63853C13.8372 5.76878 13.9163 5.88713 14.016 5.98682C14.1156 6.08651 14.234 6.16559 14.3642 6.21954C14.4944 6.27349 14.634 6.30126 14.775 6.30126C15.0597 6.30126 15.3327 6.18815 15.534 5.98682C15.7353 5.78548 15.8484 5.51241 15.8484 5.22768C15.8484 4.94295 15.7353 4.66988 15.534 4.46855C15.3327 4.26721 15.0597 4.1541 14.775 4.1541ZM10.0005 5.40885C9.39121 5.39934 8.7861 5.51116 8.22041 5.73779C7.65473 5.96442 7.13977 6.30134 6.70552 6.72893C6.27128 7.15652 5.92642 7.66624 5.69102 8.22841C5.45563 8.79058 5.3344 9.39396 5.3344 10.0034C5.3344 10.6129 5.45563 11.2163 5.69102 11.7785C5.92642 12.3406 6.27128 12.8504 6.70552 13.2779C7.13977 13.7055 7.65473 14.0424 8.22041 14.2691C8.7861 14.4957 9.39121 14.6075 10.0005 14.598C11.2065 14.5792 12.3567 14.0869 13.2029 13.2273C14.049 12.3676 14.5233 11.2097 14.5233 10.0034C14.5233 8.79714 14.049 7.63923 13.2029 6.77962C12.3567 5.92002 11.2065 5.42767 10.0005 5.40885ZM10.0005 7.02034C10.7914 7.02034 11.5499 7.33457 12.1092 7.8939C12.6684 8.45324 12.9826 9.21186 12.9826 10.0029C12.9826 10.7939 12.6684 11.5525 12.1092 12.1119C11.5499 12.6712 10.7914 12.9854 10.0005 12.9854C9.20962 12.9854 8.45112 12.6712 7.89187 12.1119C7.33262 11.5525 7.01843 10.7939 7.01843 10.0029C7.01843 9.21186 7.33262 8.45324 7.89187 7.8939C8.45112 7.33457 9.20962 7.02034 10.0005 7.02034Z" fill="white"/>
</svg>
