<svg width="28" height="27" viewBox="0 0 28 27" fill="none" xmlns="http://www.w3.org/2000/svg">
<path d="M0.941284 2.78213C0.941284 1.76796 1.83084 0.946045 2.92842 0.946045H26.013C27.1105 0.946045 28.0001 1.76796 28.0001 2.78213V24.7446C28.0001 25.7588 27.1105 26.5807 26.013 26.5807H2.92842C1.83084 26.5807 0.941284 25.7588 0.941284 24.7446V2.78213ZM9.30077 22.4055V10.8298H5.24025V22.4055H9.30077ZM7.27136 9.24848C8.68687 9.24848 9.56798 8.36087 9.56798 7.24897C9.54261 6.11303 8.68856 5.24947 7.29842 5.24947C5.90827 5.24947 5.00011 6.11464 5.00011 7.24897C5.00011 8.36087 5.88121 9.24848 7.2443 9.24848H7.27136ZM15.5717 22.4055V15.9407C15.5717 15.5947 15.5987 15.2486 15.7069 15.0019C15.9995 14.3113 16.6675 13.5952 17.7905 13.5952C19.2601 13.5952 19.8469 14.6558 19.8469 16.2131V22.4055H23.9075V15.7661C23.9075 12.2093 21.9051 10.5558 19.233 10.5558C17.0785 10.5558 16.1128 11.6774 15.5717 12.4672V12.5073H15.5446C15.5536 12.4939 15.5626 12.4806 15.5717 12.4672V10.8298H11.5128C11.5636 11.9161 11.5128 22.4055 11.5128 22.4055H15.5717Z" fill="#550317"/>
</svg>
