<svg width="40" height="39" viewBox="0 0 40 39" fill="none" xmlns="http://www.w3.org/2000/svg">
<path d="M0 2.8541C0 1.35489 1.315 0.139893 2.9375 0.139893H37.0625C38.685 0.139893 40 1.35489 40 2.8541V35.3204C40 36.8196 38.685 38.0346 37.0625 38.0346H2.9375C1.315 38.0346 0 36.8196 0 35.3204V2.8541ZM12.3575 31.8625V14.7507H6.355V31.8625H12.3575ZM9.3575 12.4131C11.45 12.4131 12.7525 11.1009 12.7525 9.45726C12.715 7.77805 11.4525 6.50147 9.3975 6.50147C7.3425 6.50147 6 7.78042 6 9.45726C6 11.1009 7.3025 12.4131 9.3175 12.4131H9.3575ZM21.6275 31.8625V22.3059C21.6275 21.7944 21.6675 21.2828 21.8275 20.9181C22.26 19.8973 23.2475 18.8386 24.9075 18.8386C27.08 18.8386 27.9475 20.4065 27.9475 22.7086V31.8625H33.95V22.0478C33.95 16.7899 30.99 14.3457 27.04 14.3457C23.855 14.3457 22.4275 16.0036 21.6275 17.1712V17.2304H21.5875C21.6008 17.2106 21.6141 17.1909 21.6275 17.1712V14.7507H15.6275C15.7025 16.3565 15.6275 31.8625 15.6275 31.8625H21.6275Z" fill="#C11A51" fill-opacity="0.44"/>
</svg>
