<svg width="20" height="20" viewBox="0 0 20 20" fill="none" xmlns="http://www.w3.org/2000/svg">
<g clip-path="url(#clip0_60_149)">
<path d="M15.2075 10.8084C14.5525 12.0695 13.665 13.3259 12.7575 14.454C11.8966 15.5176 10.9761 16.5363 10 17.5059C9.02385 16.5363 8.10336 15.5176 7.2425 14.454C6.335 13.3259 5.4475 12.0695 4.7925 10.8084C4.13 9.5342 3.75 8.34076 3.75 7.31714C3.75 5.74242 4.40848 4.23219 5.58058 3.11869C6.75269 2.00519 8.3424 1.37964 10 1.37964C11.6576 1.37964 13.2473 2.00519 14.4194 3.11869C15.5915 4.23219 16.25 5.74242 16.25 7.31714C16.25 8.34076 15.8688 9.5342 15.2075 10.8084ZM10 19.1921C10 19.1921 17.5 12.44 17.5 7.31714C17.5 5.42747 16.7098 3.6152 15.3033 2.279C13.8968 0.942806 11.9891 0.192139 10 0.192139C8.01088 0.192139 6.10322 0.942806 4.6967 2.279C3.29018 3.6152 2.5 5.42747 2.5 7.31714C2.5 12.44 10 19.1921 10 19.1921Z" fill="white"/>
<path d="M10 9.69214C9.33696 9.69214 8.70107 9.44192 8.23223 8.99652C7.76339 8.55112 7.5 7.94703 7.5 7.31714C7.5 6.68725 7.76339 6.08316 8.23223 5.63776C8.70107 5.19236 9.33696 4.94214 10 4.94214C10.663 4.94214 11.2989 5.19236 11.7678 5.63776C12.2366 6.08316 12.5 6.68725 12.5 7.31714C12.5 7.94703 12.2366 8.55112 11.7678 8.99652C11.2989 9.44192 10.663 9.69214 10 9.69214ZM10 10.8796C10.9946 10.8796 11.9484 10.5043 12.6517 9.83621C13.3549 9.16811 13.75 8.26197 13.75 7.31714C13.75 6.3723 13.3549 5.46617 12.6517 4.79807C11.9484 4.12997 10.9946 3.75464 10 3.75464C9.00544 3.75464 8.05161 4.12997 7.34835 4.79807C6.64509 5.46617 6.25 6.3723 6.25 7.31714C6.25 8.26197 6.64509 9.16811 7.34835 9.83621C8.05161 10.5043 9.00544 10.8796 10 10.8796Z" fill="white"/>
</g>
<defs>
<clipPath id="clip0_60_149">
<rect width="20" height="19" fill="white" transform="translate(0 0.192139)"/>
</clipPath>
</defs>
</svg>
