<svg width="210" height="44" viewBox="0 0 210 44" fill="none" xmlns="http://www.w3.org/2000/svg">
<path d="M39.8174 29.1921V14.6467H49.6186V17.1822H42.8927V20.6481H49.1143V23.1836H42.8927V26.6566H49.647V29.1921H39.8174ZM55.0323 22.8853V29.1921H52.0067V18.283H54.8902V20.2078H55.0181C55.2595 19.5733 55.6644 19.0714 56.2326 18.7021C56.8007 18.328 57.4897 18.141 58.2993 18.141C59.0569 18.141 59.7174 18.3067 60.2809 18.6382C60.8443 18.9696 61.2823 19.4431 61.5948 20.0586C61.9073 20.6694 62.0635 21.3986 62.0635 22.2461V29.1921H59.038V22.7859C59.0427 22.1183 58.8722 21.5974 58.5266 21.2234C58.1809 20.8446 57.7051 20.6552 57.099 20.6552C56.6918 20.6552 56.332 20.7428 56.0195 20.918C55.7117 21.0932 55.4702 21.3489 55.2951 21.685C55.1246 22.0165 55.037 22.4166 55.0323 22.8853ZM69.3629 33.5103C68.3828 33.5103 67.5423 33.3754 66.8416 33.1055C66.1456 32.8403 65.5916 32.4781 65.1796 32.0188C64.7677 31.5596 64.5002 31.0435 64.3771 30.4705L67.1754 30.0941C67.2606 30.3119 67.3956 30.5155 67.5802 30.7049C67.7649 30.8943 68.0087 31.0458 68.3117 31.1595C68.6195 31.2778 68.9936 31.337 69.4339 31.337C70.092 31.337 70.6342 31.176 71.0603 30.8541C71.4912 30.5368 71.7066 30.0042 71.7066 29.2561V27.2603H71.5788C71.4462 27.5634 71.2474 27.8498 70.9822 28.1197C70.717 28.3896 70.3761 28.6098 69.9595 28.7802C69.5428 28.9507 69.0456 29.0359 68.468 29.0359C67.6489 29.0359 66.9031 28.8465 66.2308 28.4677C65.5632 28.0842 65.0305 27.4994 64.6328 26.7134C64.2398 25.9227 64.0433 24.9237 64.0433 23.7163C64.0433 22.4805 64.2445 21.4483 64.647 20.6197C65.0494 19.7911 65.5845 19.1708 66.2521 18.7589C66.9244 18.347 67.6607 18.141 68.4609 18.141C69.0717 18.141 69.5831 18.2452 69.995 18.4535C70.4069 18.6571 70.7384 18.9128 70.9893 19.2205C71.245 19.5236 71.4415 19.8219 71.5788 20.1154H71.6924V18.283H74.6967V29.2987C74.6967 30.2267 74.4694 31.0032 74.0149 31.6282C73.5603 32.2532 72.9306 32.722 72.1257 33.0345C71.3255 33.3517 70.4045 33.5103 69.3629 33.5103ZM69.4268 26.7632C69.9145 26.7632 70.3264 26.6424 70.6626 26.4009C71.0035 26.1547 71.2639 25.8044 71.4438 25.3498C71.6285 24.8905 71.7208 24.3413 71.7208 23.7021C71.7208 23.0629 71.6309 22.5089 71.451 22.0401C71.271 21.5667 71.0106 21.1997 70.6697 20.9393C70.3288 20.6789 69.9145 20.5487 69.4268 20.5487C68.9296 20.5487 68.5106 20.6836 68.1697 20.9535C67.8288 21.2187 67.5707 21.588 67.3956 22.0615C67.2204 22.5349 67.1328 23.0818 67.1328 23.7021C67.1328 24.3318 67.2204 24.8763 67.3956 25.3356C67.5755 25.7902 67.8335 26.1429 68.1697 26.3938C68.5106 26.6401 68.9296 26.7632 69.4268 26.7632ZM82.076 29.4052C80.9538 29.4052 79.9879 29.1779 79.1782 28.7234C78.3733 28.2641 77.753 27.6154 77.3174 26.7774C76.8818 25.9346 76.664 24.9379 76.664 23.7873C76.664 22.6651 76.8818 21.6803 77.3174 20.8328C77.753 19.9852 78.3662 19.3247 79.1569 18.8512C79.9524 18.3777 80.8851 18.141 81.9552 18.141C82.6749 18.141 83.3449 18.257 83.9652 18.489C84.5902 18.7163 85.1347 19.0596 85.5987 19.5188C86.0674 19.9781 86.432 20.5558 86.6924 21.2518C86.9528 21.9431 87.0831 22.7527 87.0831 23.6808V24.5117H77.8714V22.6367H84.235C84.235 22.2011 84.1403 21.8152 83.951 21.4791C83.7616 21.1429 83.4988 20.8801 83.1626 20.6907C82.8312 20.4966 82.4453 20.3995 82.0049 20.3995C81.5456 20.3995 81.1385 20.5061 80.7833 20.7191C80.433 20.9275 80.1583 21.2092 79.9595 21.5643C79.7606 21.9147 79.6588 22.3053 79.6541 22.7362V24.5188C79.6541 25.0586 79.7535 25.525 79.9524 25.918C80.156 26.311 80.4424 26.614 80.8117 26.8271C81.1811 27.0401 81.619 27.1467 82.1257 27.1467C82.4618 27.1467 82.7696 27.0993 83.049 27.0046C83.3283 26.9099 83.5674 26.7679 83.7663 26.5785C83.9652 26.3891 84.1167 26.1571 84.2208 25.8825L87.0191 26.0671C86.8771 26.7395 86.5859 27.3266 86.1456 27.8285C85.7099 28.3257 85.1465 28.7139 84.4552 28.9933C83.7687 29.2679 82.9756 29.4052 82.076 29.4052ZM92.0831 22.8853V29.1921H89.0575V18.283H91.941V20.2078H92.0688C92.3103 19.5733 92.7152 19.0714 93.2833 18.7021C93.8515 18.328 94.5404 18.141 95.3501 18.141C96.1077 18.141 96.7682 18.3067 97.3316 18.6382C97.8951 18.9696 98.3331 19.4431 98.6456 20.0586C98.9581 20.6694 99.1143 21.3986 99.1143 22.2461V29.1921H96.0887V22.7859C96.0935 22.1183 95.923 21.5974 95.5774 21.2234C95.2317 20.8446 94.7559 20.6552 94.1498 20.6552C93.7426 20.6552 93.3828 20.7428 93.0703 20.918C92.7625 21.0932 92.521 21.3489 92.3458 21.685C92.1754 22.0165 92.0878 22.4166 92.0831 22.8853ZM104.524 22.8853V29.1921H101.499V14.6467H104.439V20.2078H104.567C104.813 19.5638 105.211 19.0596 105.76 18.695C106.309 18.3257 106.998 18.141 107.827 18.141C108.585 18.141 109.245 18.3067 109.809 18.6382C110.377 18.9649 110.817 19.436 111.13 20.0515C111.447 20.6623 111.603 21.3938 111.598 22.2461V29.1921H108.573V22.7859C108.577 22.1135 108.407 21.5903 108.061 21.2163C107.72 20.8422 107.242 20.6552 106.627 20.6552C106.215 20.6552 105.85 20.7428 105.533 20.918C105.22 21.0932 104.974 21.3489 104.794 21.685C104.619 22.0165 104.529 22.4166 104.524 22.8853ZM118.951 29.4052C117.829 29.4052 116.863 29.1779 116.053 28.7234C115.248 28.2641 114.628 27.6154 114.192 26.7774C113.757 25.9346 113.539 24.9379 113.539 23.7873C113.539 22.6651 113.757 21.6803 114.192 20.8328C114.628 19.9852 115.241 19.3247 116.032 18.8512C116.827 18.3777 117.76 18.141 118.83 18.141C119.55 18.141 120.22 18.257 120.84 18.489C121.465 18.7163 122.01 19.0596 122.474 19.5188C122.942 19.9781 123.307 20.5558 123.567 21.2518C123.828 21.9431 123.958 22.7527 123.958 23.6808V24.5117H114.746V22.6367H121.11C121.11 22.2011 121.015 21.8152 120.826 21.4791C120.637 21.1429 120.374 20.8801 120.038 20.6907C119.706 20.4966 119.32 20.3995 118.88 20.3995C118.421 20.3995 118.013 20.5061 117.658 20.7191C117.308 20.9275 117.033 21.2092 116.834 21.5643C116.636 21.9147 116.534 22.3053 116.529 22.7362V24.5188C116.529 25.0586 116.629 25.525 116.827 25.918C117.031 26.311 117.317 26.614 117.687 26.8271C118.056 27.0401 118.494 27.1467 119.001 27.1467C119.337 27.1467 119.645 27.0993 119.924 27.0046C120.203 26.9099 120.442 26.7679 120.641 26.5785C120.84 26.3891 120.992 26.1571 121.096 25.8825L123.894 26.0671C123.752 26.7395 123.461 27.3266 123.021 27.8285C122.585 28.3257 122.021 28.7139 121.33 28.9933C120.644 29.2679 119.851 29.4052 118.951 29.4052ZM130.561 18.283H133.587V29.7319C133.587 30.5747 133.421 31.2565 133.09 31.7774C132.758 32.2982 132.283 32.6794 131.662 32.9208C131.047 33.1623 130.31 33.283 129.453 33.283C129.349 33.283 129.25 33.2807 129.155 33.2759C129.056 33.2759 128.952 33.2736 128.843 33.2688V30.9038C128.923 30.9085 128.994 30.9109 129.056 30.9109C129.113 30.9156 129.174 30.918 129.24 30.918C129.728 30.918 130.069 30.8138 130.263 30.6055C130.462 30.4019 130.561 30.0941 130.561 29.6822V18.283ZM132.067 16.8768C131.622 16.8768 131.238 16.7276 130.917 16.4294C130.595 16.1263 130.434 15.7641 130.434 15.3427C130.434 14.926 130.595 14.5686 130.917 14.2703C131.238 13.9672 131.622 13.8157 132.067 13.8157C132.522 13.8157 132.908 13.9672 133.225 14.2703C133.547 14.5686 133.708 14.926 133.708 15.3427C133.708 15.7641 133.547 16.1263 133.225 16.4294C132.908 16.7276 132.522 16.8768 132.067 16.8768ZM136.011 29.1921V18.283H138.944V20.1865H139.057C139.256 19.5094 139.59 18.998 140.059 18.6524C140.528 18.302 141.067 18.1268 141.678 18.1268C141.83 18.1268 141.993 18.1363 142.168 18.1552C142.343 18.1741 142.497 18.2002 142.63 18.2333V20.918C142.488 20.8754 142.291 20.8375 142.04 20.8044C141.789 20.7712 141.56 20.7546 141.352 20.7546C140.906 20.7546 140.509 20.8517 140.158 21.0458C139.813 21.2352 139.538 21.5004 139.334 21.8413C139.136 22.1822 139.036 22.5752 139.036 23.0203V29.1921H136.011Z" fill="white"/>
<path d="M30.7402 9.25809L30.7402 20.736L20.3519 25.8912L13.3367 22.5899L24.5817 17.3099L24.5868 12.3514L20.2789 10.3306L7.74878 16.178L7.75868 27.8708L20.4248 33.6873L30.7038 28.5853L30.7354 35.0269L20.408 40.173L0.803772 30.9932L0.835746 12.9494L20.3277 3.86255L30.7402 9.25809Z" fill="white"/>
</svg>
