<svg width="215" height="50" viewBox="0 0 215 50" fill="none" xmlns="http://www.w3.org/2000/svg">
<g filter="url(#filter0_d_259_113)">
<path d="M44.8174 30.9285V16.383H54.6185V18.9185H47.8927V22.3844H54.1142V24.9199H47.8927V28.393H54.6469V30.9285H44.8174ZM60.0322 24.6216V30.9285H57.0066V20.0194H59.8902V21.9441H60.018C60.2595 21.3096 60.6643 20.8077 61.2325 20.4384C61.8007 20.0644 62.4896 19.8773 63.2993 19.8773C64.0568 19.8773 64.7173 20.0431 65.2808 20.3745C65.8442 20.7059 66.2822 21.1794 66.5947 21.7949C66.9072 22.4057 67.0635 23.1349 67.0635 23.9824V30.9285H64.0379V24.5222C64.0426 23.8546 63.8722 23.3338 63.5265 22.9597C63.1809 22.5809 62.705 22.3915 62.099 22.3915C61.6918 22.3915 61.3319 22.4791 61.0194 22.6543C60.7117 22.8295 60.4702 23.0852 60.295 23.4214C60.1245 23.7528 60.0369 24.1529 60.0322 24.6216ZM74.3628 35.2466C73.3827 35.2466 72.5423 35.1117 71.8415 34.8418C71.1455 34.5767 70.5915 34.2145 70.1796 33.7552C69.7677 33.2959 69.5001 32.7798 69.377 32.2069L72.1753 31.8305C72.2605 32.0483 72.3955 32.2519 72.5802 32.4413C72.7648 32.6306 73.0087 32.7822 73.3117 32.8958C73.6194 33.0142 73.9935 33.0734 74.4338 33.0734C75.092 33.0734 75.6341 32.9124 76.0603 32.5904C76.4911 32.2732 76.7066 31.7405 76.7066 30.9924V28.9966H76.5787C76.4462 29.2997 76.2473 29.5861 75.9821 29.856C75.717 30.1259 75.3761 30.3461 74.9594 30.5165C74.5427 30.687 74.0456 30.7722 73.4679 30.7722C72.6488 30.7722 71.9031 30.5828 71.2307 30.204C70.5631 29.8205 70.0304 29.2358 69.6327 28.4498C69.2397 27.6591 69.0432 26.66 69.0432 25.4526C69.0432 24.2168 69.2444 23.1846 69.6469 22.356C70.0494 21.5274 70.5844 20.9072 71.252 20.4952C71.9244 20.0833 72.6606 19.8773 73.4608 19.8773C74.0716 19.8773 74.583 19.9815 74.9949 20.1898C75.4069 20.3934 75.7383 20.6491 75.9892 20.9569C76.2449 21.2599 76.4414 21.5582 76.5787 21.8518H76.6924V20.0194H79.6966V31.035C79.6966 31.963 79.4694 32.7395 79.0148 33.3645C78.5603 33.9895 77.9305 34.4583 77.1256 34.7708C76.3254 35.088 75.4045 35.2466 74.3628 35.2466ZM74.4267 28.4995C74.9144 28.4995 75.3264 28.3788 75.6625 28.1373C76.0034 27.8911 76.2639 27.5407 76.4438 27.0861C76.6284 26.6269 76.7208 26.0776 76.7208 25.4384C76.7208 24.7992 76.6308 24.2452 76.4509 23.7765C76.271 23.303 76.0105 22.936 75.6696 22.6756C75.3287 22.4152 74.9144 22.285 74.4267 22.285C73.9296 22.285 73.5105 22.4199 73.1696 22.6898C72.8287 22.955 72.5707 23.3243 72.3955 23.7978C72.2203 24.2713 72.1327 24.8181 72.1327 25.4384C72.1327 26.0681 72.2203 26.6127 72.3955 27.0719C72.5754 27.5265 72.8335 27.8792 73.1696 28.1302C73.5105 28.3764 73.9296 28.4995 74.4267 28.4995ZM87.0759 31.1415C85.9537 31.1415 84.9878 30.9143 84.1782 30.4597C83.3732 30.0004 82.753 29.3518 82.3174 28.5137C81.8818 27.6709 81.664 26.6742 81.664 25.5236C81.664 24.4015 81.8818 23.4166 82.3174 22.5691C82.753 21.7216 83.3661 21.061 84.1569 20.5876C84.9523 20.1141 85.8851 19.8773 86.9552 19.8773C87.6748 19.8773 88.3448 19.9933 88.9651 20.2253C89.5901 20.4526 90.1346 20.7959 90.5986 21.2552C91.0674 21.7145 91.4319 22.2921 91.6924 22.9881C91.9528 23.6794 92.083 24.4891 92.083 25.4171V26.2481H82.8713V24.3731H89.235C89.235 23.9375 89.1403 23.5516 88.9509 23.2154C88.7615 22.8792 88.4987 22.6164 88.1625 22.427C87.8311 22.2329 87.4452 22.1359 87.0049 22.1359C86.5456 22.1359 86.1384 22.2424 85.7833 22.4555C85.4329 22.6638 85.1583 22.9455 84.9594 23.3006C84.7605 23.651 84.6587 24.0416 84.654 24.4725V26.2552C84.654 26.7949 84.7534 27.2613 84.9523 27.6543C85.1559 28.0473 85.4424 28.3503 85.8117 28.5634C86.181 28.7765 86.619 28.883 87.1256 28.883C87.4618 28.883 87.7695 28.8357 88.0489 28.741C88.3283 28.6463 88.5674 28.5042 88.7662 28.3148C88.9651 28.1254 89.1166 27.8934 89.2208 27.6188L92.0191 27.8035C91.877 28.4758 91.5858 29.0629 91.1455 29.5648C90.7099 30.062 90.1464 30.4502 89.4552 30.7296C88.7686 31.0042 87.9755 31.1415 87.0759 31.1415ZM97.083 24.6216V30.9285H94.0574V20.0194H96.9409V21.9441H97.0688C97.3103 21.3096 97.7151 20.8077 98.2833 20.4384C98.8515 20.0644 99.5404 19.8773 100.35 19.8773C101.108 19.8773 101.768 20.0431 102.332 20.3745C102.895 20.7059 103.333 21.1794 103.645 21.7949C103.958 22.4057 104.114 23.1349 104.114 23.9824V30.9285H101.089V24.5222C101.093 23.8546 100.923 23.3338 100.577 22.9597C100.232 22.5809 99.7558 22.3915 99.1498 22.3915C98.7426 22.3915 98.3827 22.4791 98.0702 22.6543C97.7624 22.8295 97.521 23.0852 97.3458 23.4214C97.1753 23.7528 97.0877 24.1529 97.083 24.6216ZM109.524 24.6216V30.9285H106.499V16.383H109.439V21.9441H109.567C109.813 21.3002 110.211 20.7959 110.76 20.4313C111.309 20.062 111.998 19.8773 112.827 19.8773C113.585 19.8773 114.245 20.0431 114.808 20.3745C115.377 20.7012 115.817 21.1723 116.13 21.7878C116.447 22.3986 116.603 23.1302 116.598 23.9824V30.9285H113.573V24.5222C113.577 23.8499 113.407 23.3267 113.061 22.9526C112.72 22.5786 112.242 22.3915 111.627 22.3915C111.215 22.3915 110.85 22.4791 110.533 22.6543C110.22 22.8295 109.974 23.0852 109.794 23.4214C109.619 23.7528 109.529 24.1529 109.524 24.6216ZM123.951 31.1415C122.829 31.1415 121.863 30.9143 121.053 30.4597C120.248 30.0004 119.628 29.3518 119.192 28.5137C118.757 27.6709 118.539 26.6742 118.539 25.5236C118.539 24.4015 118.757 23.4166 119.192 22.5691C119.628 21.7216 120.241 21.061 121.032 20.5876C121.827 20.1141 122.76 19.8773 123.83 19.8773C124.55 19.8773 125.22 19.9933 125.84 20.2253C126.465 20.4526 127.01 20.7959 127.474 21.2552C127.942 21.7145 128.307 22.2921 128.567 22.9881C128.828 23.6794 128.958 24.4891 128.958 25.4171V26.2481H119.746V24.3731H126.11C126.11 23.9375 126.015 23.5516 125.826 23.2154C125.636 22.8792 125.374 22.6164 125.038 22.427C124.706 22.2329 124.32 22.1359 123.88 22.1359C123.421 22.1359 123.013 22.2424 122.658 22.4555C122.308 22.6638 122.033 22.9455 121.834 23.3006C121.636 23.651 121.534 24.0416 121.529 24.4725V26.2552C121.529 26.7949 121.628 27.2613 121.827 27.6543C122.031 28.0473 122.317 28.3503 122.687 28.5634C123.056 28.7765 123.494 28.883 124.001 28.883C124.337 28.883 124.645 28.8357 124.924 28.741C125.203 28.6463 125.442 28.5042 125.641 28.3148C125.84 28.1254 125.992 27.8934 126.096 27.6188L128.894 27.8035C128.752 28.4758 128.461 29.0629 128.02 29.5648C127.585 30.062 127.021 30.4502 126.33 30.7296C125.644 31.0042 124.851 31.1415 123.951 31.1415ZM135.561 20.0194H138.587V31.4682C138.587 32.311 138.421 32.9929 138.09 33.5137C137.758 34.0345 137.282 34.4157 136.662 34.6572C136.047 34.8986 135.31 35.0194 134.453 35.0194C134.349 35.0194 134.25 35.017 134.155 35.0123C134.056 35.0123 133.951 35.0099 133.843 35.0052V32.6401C133.923 32.6448 133.994 32.6472 134.056 32.6472C134.112 32.652 134.174 32.6543 134.24 32.6543C134.728 32.6543 135.069 32.5502 135.263 32.3418C135.462 32.1382 135.561 31.8305 135.561 31.4185V20.0194ZM137.067 18.6131C136.622 18.6131 136.238 18.464 135.916 18.1657C135.594 17.8627 135.433 17.5004 135.433 17.079C135.433 16.6624 135.594 16.3049 135.916 16.0066C136.238 15.7036 136.622 15.552 137.067 15.552C137.522 15.552 137.907 15.7036 138.225 16.0066C138.547 16.3049 138.708 16.6624 138.708 17.079C138.708 17.5004 138.547 17.8627 138.225 18.1657C137.907 18.464 137.522 18.6131 137.067 18.6131ZM141.011 30.9285V20.0194H143.944V21.9228H144.057C144.256 21.2457 144.59 20.7343 145.059 20.3887C145.528 20.0383 146.067 19.8631 146.678 19.8631C146.83 19.8631 146.993 19.8726 147.168 19.8915C147.343 19.9105 147.497 19.9365 147.63 19.9697V22.6543C147.488 22.6117 147.291 22.5738 147.04 22.5407C146.789 22.5075 146.56 22.491 146.351 22.491C145.906 22.491 145.509 22.588 145.158 22.7822C144.813 22.9716 144.538 23.2367 144.334 23.5776C144.136 23.9185 144.036 24.3115 144.036 24.7566V30.9285H141.011Z" fill="#67031E"/>
</g>
<g filter="url(#filter1_d_259_113)">
<path d="M34.7423 10.2727L34.7423 22.0449L24.3534 27.3323L17.3377 23.9464L28.5835 18.531L28.5886 13.4453L24.2804 11.3726L11.7494 17.37L11.7593 29.3626L24.4263 35.3282L34.706 30.0954L34.7376 36.7022L24.4095 41.9803L4.80396 32.5651L4.83593 14.0586L24.3292 4.73877L34.7423 10.2727Z" fill="#961236"/>
<path d="M17.6808 38.7486L24.4257 35.3328L31.202 38.5038L24.4594 42.0001L17.6808 38.7486Z" fill="#67031E"/>
<path d="M11.7464 29.3779L11.7724 35.9021L4.80396 32.5353V26.0122L11.7464 29.3779Z" fill="#67031E"/>
<path d="M24.3275 4.74601L30.871 8.21569L24.2759 11.4094L17.3471 8.08691L24.3275 4.74601Z" fill="#550317"/>
<path d="M11.735 17.3884L4.84993 20.7038L4.80183 14.0778L11.7386 10.7596L11.735 17.3884Z" fill="#C11A51"/>
<path d="M34.7423 22.0203L28.6004 25.2105L28.6004 18.5256L34.7423 15.4528L34.7423 22.0203Z" fill="#550317"/>
</g>
<defs>
<filter id="filter0_d_259_113" x="40.8174" y="15.552" width="110.812" height="27.6946" filterUnits="userSpaceOnUse" color-interpolation-filters="sRGB">
<feFlood flood-opacity="0" result="BackgroundImageFix"/>
<feColorMatrix in="SourceAlpha" type="matrix" values="0 0 0 0 0 0 0 0 0 0 0 0 0 0 0 0 0 0 127 0" result="hardAlpha"/>
<feOffset dy="4"/>
<feGaussianBlur stdDeviation="2"/>
<feComposite in2="hardAlpha" operator="out"/>
<feColorMatrix type="matrix" values="0 0 0 0 0 0 0 0 0 0 0 0 0 0 0 0 0 0 0.25 0"/>
<feBlend mode="normal" in2="BackgroundImageFix" result="effect1_dropShadow_259_113"/>
<feBlend mode="normal" in="SourceGraphic" in2="effect1_dropShadow_259_113" result="shape"/>
</filter>
<filter id="filter1_d_259_113" x="0.801819" y="4.73877" width="37.9406" height="45.2612" filterUnits="userSpaceOnUse" color-interpolation-filters="sRGB">
<feFlood flood-opacity="0" result="BackgroundImageFix"/>
<feColorMatrix in="SourceAlpha" type="matrix" values="0 0 0 0 0 0 0 0 0 0 0 0 0 0 0 0 0 0 127 0" result="hardAlpha"/>
<feOffset dy="4"/>
<feGaussianBlur stdDeviation="2"/>
<feComposite in2="hardAlpha" operator="out"/>
<feColorMatrix type="matrix" values="0 0 0 0 0 0 0 0 0 0 0 0 0 0 0 0 0 0 0.25 0"/>
<feBlend mode="normal" in2="BackgroundImageFix" result="effect1_dropShadow_259_113"/>
<feBlend mode="normal" in="SourceGraphic" in2="effect1_dropShadow_259_113" result="shape"/>
</filter>
</defs>
</svg>
