<svg width="100" height="101" viewBox="0 0 100 101" fill="none" xmlns="http://www.w3.org/2000/svg">
<path d="M50 30.2323C47.3356 30.2323 44.6973 30.7587 42.2358 31.7815C39.7742 32.8044 37.5376 34.3035 35.6536 36.1934C33.7696 38.0833 32.2752 40.327 31.2556 42.7962C30.236 45.2655 29.7112 47.9121 29.7112 50.5848C29.7112 53.2575 30.236 55.9041 31.2556 58.3734C32.2752 60.8426 33.7696 63.0863 35.6536 64.9762C37.5376 66.8661 39.7742 68.3653 42.2358 69.3881C44.6973 70.4109 47.3356 70.9373 50 70.9373C55.3809 70.9373 60.5414 68.793 64.3463 64.9762C68.1512 61.1594 70.2887 55.9826 70.2887 50.5848C70.2887 45.187 68.1512 40.0102 64.3463 36.1934C60.5414 32.3766 55.3809 30.2323 50 30.2323ZM35.9616 50.5848C35.9616 46.8499 37.4406 43.268 40.0733 40.627C42.706 37.986 46.2767 36.5023 50 36.5023C53.7232 36.5023 57.2939 37.986 59.9266 40.627C62.5593 43.268 64.0383 46.8499 64.0383 50.5848C64.0383 54.3197 62.5593 57.9016 59.9266 60.5426C57.2939 63.1836 53.7232 64.6673 50 64.6673C46.2767 64.6673 42.706 63.1836 40.0733 60.5426C37.4406 57.9016 35.9616 54.3197 35.9616 50.5848Z" fill="#550317"/>
<path d="M61.2257 8.84537C57.9317 -2.37798 42.0683 -2.37798 38.7743 8.84537L38.1868 10.8455C37.9567 11.629 37.5548 12.3508 37.0105 12.9582C36.4663 13.5656 35.7934 14.0432 35.0412 14.3558C34.289 14.6684 33.4767 14.8082 32.6636 14.765C31.8506 14.7218 31.0575 14.4966 30.3425 14.1059L28.5174 13.1027C18.2668 7.50985 7.05982 18.7583 12.6414 29.0348L13.6352 30.8657C14.0247 31.5829 14.2492 32.3785 14.2923 33.1941C14.3354 34.0097 14.196 34.8246 13.8843 35.5791C13.5727 36.3337 13.0966 37.0087 12.4911 37.5547C11.8856 38.1007 11.166 38.5038 10.385 38.7346L8.39115 39.324C-2.79705 42.6283 -2.79705 58.5416 8.39115 61.8459L10.385 62.4353C11.166 62.666 11.8856 63.0692 12.4911 63.6152C13.0966 64.1612 13.5727 64.8362 13.8843 65.5907C14.196 66.3452 14.3354 67.1602 14.2923 67.9758C14.2492 68.7913 14.0247 69.5869 13.6352 70.3042L12.6352 72.135C7.05982 82.4178 18.2668 93.6663 28.5174 88.0609L30.3425 87.0639C31.0575 86.6733 31.8506 86.4481 32.6636 86.4048C33.4767 86.3616 34.289 86.5014 35.0412 86.8141C35.7934 87.1267 36.4663 87.6042 37.0105 88.2116C37.5548 88.819 37.9567 89.5409 38.1868 90.3243L38.7743 92.3245C42.0683 103.548 57.9317 103.548 61.2257 92.3245L61.8132 90.3243C62.0433 89.5409 62.4452 88.819 62.9895 88.2116C63.5337 87.6042 64.2066 87.1267 64.9588 86.8141C65.711 86.5014 66.5233 86.3616 67.3364 86.4048C68.1494 86.4481 68.9425 86.6733 69.6575 87.0639L71.4826 88.0671C81.7332 93.6663 92.9464 82.4116 87.3586 72.135L86.3648 70.3042C85.9753 69.5869 85.7508 68.7913 85.7077 67.9758C85.6646 67.1602 85.804 66.3452 86.1157 65.5907C86.4273 64.8362 86.9034 64.1612 87.5089 63.6152C88.1144 63.0692 88.834 62.666 89.615 62.4353L91.6088 61.8459C102.797 58.5416 102.797 42.6283 91.6088 39.324L89.615 38.7346C88.834 38.5038 88.1144 38.1007 87.5089 37.5547C86.9034 37.0087 86.4273 36.3337 86.1157 35.5791C85.804 34.8246 85.6646 34.0097 85.7077 33.1941C85.7508 32.3785 85.9753 31.5829 86.3648 30.8657L87.3648 29.0348C92.9464 18.752 81.727 7.50985 71.4826 13.109L69.6575 14.1059C68.9425 14.4966 68.1494 14.7218 67.3364 14.765C66.5233 14.8082 65.711 14.6684 64.9588 14.3558C64.2066 14.0432 63.5337 13.5656 62.9895 12.9582C62.4452 12.3508 62.0433 11.629 61.8132 10.8455L61.2257 8.84537ZM44.7684 10.6198C46.306 5.38431 53.694 5.38431 55.2316 10.6198L55.8191 12.6199C56.313 14.3008 57.1757 15.8495 58.3438 17.1525C59.512 18.4555 60.956 19.4797 62.57 20.1501C64.1841 20.8205 65.9272 21.12 67.6716 21.0267C69.4161 20.9334 71.1176 20.4497 72.6514 19.611L74.4703 18.6078C79.2456 16.0057 84.4709 21.2412 81.8707 26.0378L80.8769 27.8686C80.0421 29.4075 79.5611 31.1142 79.4691 32.8637C79.3771 34.6132 79.6765 36.3612 80.3453 37.9796C81.0142 39.598 82.0355 41.0457 83.3344 42.2168C84.6334 43.3879 86.1771 44.2526 87.8524 44.7475L89.84 45.3369C95.0591 46.8793 95.0591 54.2905 89.84 55.8329L87.8461 56.4223C86.1705 56.9178 84.6266 57.7831 83.3277 58.9549C82.0288 60.1268 81.0078 61.5753 80.3395 63.1944C79.6712 64.8135 79.3727 66.5621 79.4657 68.312C79.5586 70.062 80.0408 71.7688 80.8769 73.3075L81.877 75.1321C84.4709 79.9224 79.2518 85.1641 74.4703 82.5558L72.6514 81.5588C71.1172 80.7202 69.4152 80.2367 67.6704 80.1439C65.9257 80.051 64.1823 80.351 62.5682 81.022C60.954 81.693 59.5101 82.718 58.3423 84.0217C57.1744 85.3254 56.3123 86.8747 55.8191 88.5562L55.2316 90.5501C53.694 95.7855 46.306 95.7855 44.7684 90.5501L44.1809 88.5499C43.6868 86.8699 42.8243 85.322 41.6565 84.0197C40.4888 82.7174 39.0455 81.6936 37.4323 81.0233C35.819 80.353 34.0768 80.0532 32.3331 80.1459C30.5894 80.2385 28.8884 80.7213 27.3548 81.5588L25.5297 82.5621C20.7544 85.1641 15.5291 79.9286 18.1293 75.1321L19.1231 73.3075C19.9603 71.7686 20.4435 70.0612 20.5371 68.3105C20.6307 66.5598 20.3324 64.8104 19.664 63.1904C18.9956 61.5705 17.9742 60.1213 16.6747 58.949C15.3751 57.7768 13.8304 56.9113 12.1539 56.416L10.16 55.8267C4.94093 54.2842 4.94093 46.8731 10.16 45.3306L12.1539 44.7413C13.8278 44.2454 15.37 43.3803 16.6676 42.2094C17.9652 41.0384 18.9853 39.5912 19.6534 37.9737C20.3215 36.3562 20.6206 34.6094 20.5289 32.8609C20.4371 31.1125 19.9568 29.4068 19.1231 27.8686L18.123 26.0378C15.5291 21.2475 20.7482 16.0057 25.5297 18.6141L27.3548 19.611C28.8884 20.4485 30.5894 20.9313 32.3331 21.024C34.0768 21.1166 35.819 20.8168 37.4323 20.1466C39.0455 19.4763 40.4888 18.4525 41.6565 17.1501C42.8243 15.8478 43.6868 14.2999 44.1809 12.6199L44.7684 10.6198Z" fill="#550317"/>
</svg>
