<svg width="100" height="85" viewBox="0 0 100 85" fill="none" xmlns="http://www.w3.org/2000/svg">
<path d="M50 32.3384L44.4125 21.2893C43.025 18.5532 40.6188 14.619 37.2125 11.4383C33.8625 8.30695 29.85 6.17617 25 6.17617C14.525 6.17617 6.25 14.3658 6.25 24.2106C6.25 31.6899 9.7125 36.9706 17.925 45.0243C20.0312 47.0871 22.4312 49.3167 25.0875 51.7748C32.0125 58.1981 40.625 66.19 50 76.8748C59.375 66.19 67.9875 58.1981 74.9125 51.7748C77.5687 49.3167 79.975 47.0809 82.075 45.0243C90.2875 36.9706 93.75 31.6899 93.75 24.2106C93.75 14.3658 85.475 6.17617 75 6.17617C70.1438 6.17617 66.1375 8.30695 62.7875 11.4383C59.3812 14.619 56.975 18.5532 55.5875 21.2893L50 32.3384ZM52.45 83.5512C52.149 83.9035 51.7739 84.1867 51.3507 84.3809C50.9275 84.5752 50.4666 84.6758 50 84.6758C49.5334 84.6758 49.0725 84.5752 48.6493 84.3809C48.2261 84.1867 47.851 83.9035 47.55 83.5512C37.5438 71.8042 28.4875 63.4046 21.0312 56.4934C8.125 44.5178 0 36.9891 0 24.2106C0 10.8392 11.1875 0 25 0C35 0 41.9937 6.48498 46.275 12.4017C47.9 14.6561 49.1375 16.8239 50 18.5285C51.0812 16.3951 52.3265 14.3468 53.725 12.4017C58.0062 6.4788 65 0 75 0C88.8125 0 100 10.8392 100 24.2106C100 36.9891 91.875 44.5178 78.9688 56.4934C71.5125 63.4107 62.4562 71.8165 52.45 83.5512Z" fill="white"/>
</svg>
