<svg width="76" height="99" viewBox="0 0 76 99" fill="none" xmlns="http://www.w3.org/2000/svg">
<path d="M41.6112 38.5733C42.2987 36.5351 45.2112 36.5351 45.8987 38.5733L49.9299 50.5365C50.8172 53.1663 52.3122 55.5558 54.2964 57.5154C56.2806 59.4751 58.6994 60.9511 61.3612 61.8266L73.4612 65.8102C75.5237 66.4896 75.5237 69.3677 73.4612 70.047L61.3549 74.0307C58.6937 74.9075 56.2757 76.3848 54.2926 78.3456C52.3095 80.3063 50.8158 82.6966 49.9299 85.3269L45.8987 97.2839C45.7505 97.7302 45.4634 98.1189 45.0784 98.3944C44.6934 98.6699 44.2303 98.8183 43.7549 98.8183C43.2796 98.8183 42.8164 98.6699 42.4314 98.3944C42.0465 98.1189 41.7594 97.7302 41.6112 97.2839L37.5799 85.3207C36.6932 82.6915 35.1992 80.3025 33.2161 78.3429C31.2331 76.3833 28.8155 74.9069 26.1549 74.0307L14.0487 70.047C13.597 69.9006 13.2038 69.6169 12.9249 69.2365C12.6461 68.856 12.496 68.3983 12.496 67.9286C12.496 67.4589 12.6461 67.0012 12.9249 66.6208C13.2038 66.2403 13.597 65.9567 14.0487 65.8102L26.1549 61.8266C28.8155 60.9503 31.2331 59.4739 33.2161 57.5143C35.1992 55.5547 36.6932 53.1657 37.5799 50.5365L41.6112 38.5733ZM17.4674 7.08099C17.557 6.81353 17.7297 6.58078 17.9608 6.41582C18.1919 6.25085 18.4698 6.16206 18.7549 6.16206C19.04 6.16206 19.3179 6.25085 19.549 6.41582C19.7802 6.58078 19.9528 6.81353 20.0424 7.08099L22.4612 14.2577C23.5424 17.457 26.0799 19.9645 29.3174 21.033L36.5799 23.4231C36.8506 23.5117 37.0861 23.6823 37.253 23.9107C37.42 24.1391 37.5098 24.4137 37.5098 24.6954C37.5098 24.9772 37.42 25.2518 37.253 25.4802C37.0861 25.7086 36.8506 25.8792 36.5799 25.9677L29.3174 28.3579C27.7207 28.8836 26.2698 29.7695 25.0798 30.9456C23.8897 32.1216 22.9931 33.5553 22.4612 35.1332L20.0424 42.3099C19.9528 42.5773 19.7802 42.8101 19.549 42.975C19.3179 43.14 19.04 43.2288 18.7549 43.2288C18.4698 43.2288 18.1919 43.14 17.9608 42.975C17.7297 42.8101 17.557 42.5773 17.4674 42.3099L15.0487 35.1332C14.5167 33.5553 13.6201 32.1216 12.4301 30.9456C11.24 29.7695 9.78914 28.8836 8.19242 28.3579L0.929919 25.9677C0.659259 25.8792 0.423728 25.7086 0.25679 25.4802C0.0898522 25.2518 0 24.9772 0 24.6954C0 24.4137 0.0898522 24.1391 0.25679 23.9107C0.423728 23.6823 0.659259 23.5117 0.929919 23.4231L8.19242 21.033C9.78914 20.5073 11.24 19.6213 12.4301 18.4453C13.6201 17.2693 14.5167 15.8356 15.0487 14.2577L17.4674 7.08099ZM61.6487 0.602193C61.7104 0.426334 61.826 0.273842 61.9794 0.165918C62.1329 0.0579937 62.3166 0 62.5049 0C62.6933 0 62.8769 0.0579937 63.0304 0.165918C63.1839 0.273842 63.2995 0.426334 63.3612 0.602193L64.9737 5.38255C65.6924 7.5195 67.3862 9.19324 69.5487 9.9035L74.3862 11.497C74.5641 11.5579 74.7184 11.6722 74.8277 11.8238C74.9369 11.9755 74.9956 12.157 74.9956 12.3431C74.9956 12.5292 74.9369 12.7107 74.8277 12.8624C74.7184 13.014 74.5641 13.1283 74.3862 13.1892L69.5487 14.7827C68.483 15.133 67.5146 15.724 66.7204 16.5088C65.9263 17.2936 65.3282 18.2505 64.9737 19.3036L63.3612 24.084C63.2995 24.2598 63.1839 24.4123 63.0304 24.5203C62.8769 24.6282 62.6933 24.6862 62.5049 24.6862C62.3166 24.6862 62.1329 24.6282 61.9794 24.5203C61.826 24.4123 61.7104 24.2598 61.6487 24.084L60.0362 19.3036C59.6816 18.2505 59.0836 17.2936 58.2894 16.5088C57.4952 15.724 56.5269 15.133 55.4612 14.7827L50.6299 13.1892C50.452 13.1283 50.2976 13.014 50.1884 12.8624C50.0792 12.7107 50.0205 12.5292 50.0205 12.3431C50.0205 12.157 50.0792 11.9755 50.1884 11.8238C50.2976 11.6722 50.452 11.5579 50.6299 11.497L55.4674 9.9035C57.6299 9.19324 59.3237 7.5195 60.0424 5.38255L61.6487 0.608369V0.602193Z" fill="white"/>
</svg>
