<svg width="40" height="40" viewBox="0 0 40 40" fill="none" xmlns="http://www.w3.org/2000/svg">
<path d="M19.9999 0C8.95432 0 0 8.95436 0 20C0 28.473 5.27163 35.7163 12.7114 38.6304C12.5367 37.048 12.3786 34.6144 12.7808 32.8869C13.1443 31.326 15.126 22.9456 15.126 22.9456C15.126 22.9456 14.5278 21.7475 14.5278 19.9762C14.5278 17.1952 16.1397 15.119 18.1467 15.119C19.853 15.119 20.6772 16.4001 20.6772 17.9363C20.6772 19.6523 19.5846 22.2179 19.0208 24.5954C18.5497 26.586 20.0191 28.2094 21.9825 28.2094C25.5371 28.2094 28.2696 24.4613 28.2696 19.0509C28.2696 14.2622 24.8287 10.9142 19.9155 10.9142C14.2248 10.9142 10.8846 15.1825 10.8846 19.5936C10.8846 21.3125 11.5468 23.1558 12.3731 24.1578C12.5365 24.3559 12.5604 24.5293 12.5118 24.7315C12.3599 25.3631 12.0225 26.7216 11.9563 26.9996C11.8691 27.3657 11.6665 27.4434 11.2874 27.267C8.78956 26.1043 7.22782 22.4523 7.22782 19.519C7.22782 13.21 11.8117 7.41606 20.4426 7.41606C27.3805 7.41606 32.7722 12.36 32.7722 18.9671C32.7722 25.8599 28.4262 31.4071 22.394 31.4071C20.3673 31.4071 18.4621 30.3543 17.8099 29.1106C17.8099 29.1106 16.8071 32.9292 16.564 33.865C16.1125 35.6022 14.8935 37.7797 14.0782 39.1081C15.9495 39.6875 17.9382 40 19.9999 40C31.0457 40 40 31.0456 40 20C40 8.95436 31.0457 0 19.9999 0Z" fill="#C11A51" fill-opacity="0.4"/>
</svg>
