<svg width="25" height="25" viewBox="0 0 25 25" fill="none" xmlns="http://www.w3.org/2000/svg">
<path d="M12.4999 0C5.59645 0 0 5.59647 0 12.5C0 17.7956 3.29477 22.3227 7.94465 24.144C7.83542 23.155 7.73664 21.634 7.98799 20.5543C8.21516 19.5787 9.45376 14.341 9.45376 14.341C9.45376 14.341 9.07986 13.5922 9.07986 12.4851C9.07986 10.747 10.0873 9.44939 11.3417 9.44939C12.4081 9.44939 12.9232 10.2501 12.9232 11.2102C12.9232 12.2827 12.2404 13.8862 11.888 15.3721C11.5935 16.6163 12.5119 17.6309 13.7391 17.6309C15.9607 17.6309 17.6685 15.2883 17.6685 11.9068C17.6685 8.9139 15.518 6.82135 12.4472 6.82135C8.89051 6.82135 6.80288 9.48905 6.80288 12.246C6.80288 13.3203 7.21673 14.4724 7.73316 15.0986C7.83532 15.2224 7.85028 15.3308 7.81985 15.4572C7.72496 15.852 7.51409 16.701 7.47269 16.8748C7.41818 17.1036 7.29153 17.1521 7.05463 17.0419C5.49347 16.3152 4.51739 14.0327 4.51739 12.1994C4.51739 8.25628 7.38232 4.63504 12.7766 4.63504C17.1128 4.63504 20.4826 7.72499 20.4826 11.8545C20.4826 16.1624 17.7664 19.6295 13.9963 19.6295C12.7296 19.6295 11.5388 18.9714 11.1312 18.1941C11.1312 18.1941 10.5044 20.5808 10.3525 21.1656C10.0703 22.2514 9.30846 23.6123 8.7989 24.4426C9.96844 24.8047 11.2113 25 12.4999 25C19.4036 25 25 19.4035 25 12.5C25 5.59647 19.4036 0 12.4999 0Z" fill="#550317"/>
</svg>
