<svg width="20" height="20" viewBox="0 0 20 20" fill="none" xmlns="http://www.w3.org/2000/svg">
<path d="M9.99996 0C4.47716 0 0 4.47718 0 10C0 14.2365 2.63582 17.8581 6.35572 19.3152C6.26834 18.524 6.18931 17.3072 6.39039 16.4435C6.57213 15.663 7.56301 11.4728 7.56301 11.4728C7.56301 11.4728 7.26389 10.8737 7.26389 9.98811C7.26389 8.59761 8.06984 7.55951 9.07335 7.55951C9.92651 7.55951 10.3386 8.20005 10.3386 8.96813C10.3386 9.82614 9.79232 11.1089 9.51042 12.2977C9.27483 13.293 10.0095 14.1047 10.9912 14.1047C12.7686 14.1047 14.1348 12.2306 14.1348 9.52546C14.1348 7.13112 12.4144 5.45708 9.95774 5.45708C7.1124 5.45708 5.4423 7.59124 5.4423 9.79679C5.4423 10.6563 5.77339 11.5779 6.18653 12.0789C6.26825 12.1779 6.28022 12.2647 6.25588 12.3657C6.17997 12.6816 6.01127 13.3608 5.97815 13.4998C5.93455 13.6829 5.83323 13.7217 5.64371 13.6335C4.39478 13.0522 3.61391 11.2261 3.61391 9.75949C3.61391 6.60502 5.90586 3.70803 10.2213 3.70803C13.6903 3.70803 16.3861 6.18 16.3861 9.48357C16.3861 12.9299 14.2131 15.7036 11.197 15.7036C10.1837 15.7036 9.23106 15.1771 8.90497 14.5553C8.90497 14.5553 8.40355 16.4646 8.28199 16.9325C8.05623 17.8011 7.44677 18.8898 7.03912 19.5541C7.97475 19.8438 8.96908 20 9.99996 20C15.5228 20 20 15.5228 20 10C20 4.47718 15.5228 0 9.99996 0Z" fill="white"/>
</svg>
