<svg width="100" height="75" viewBox="0 0 100 75" fill="none" xmlns="http://www.w3.org/2000/svg">
<path d="M93.75 74.114C93.75 74.114 100 74.114 100 67.9379C100 61.7617 93.75 43.2332 68.75 43.2332C43.75 43.2332 37.5 61.7617 37.5 67.9379C37.5 74.114 43.75 74.114 43.75 74.114H93.75ZM43.8875 67.9379C43.8413 67.9316 43.7955 67.9233 43.75 67.9132C43.7562 66.2827 44.7938 61.5517 48.5 57.2902C51.95 53.2942 58.0125 49.4094 68.75 49.4094C79.4812 49.4094 85.5437 53.3003 89 57.2902C92.7062 61.5517 93.7375 66.2888 93.75 67.9132L93.7 67.9255C93.6709 67.9304 93.6418 67.9345 93.6125 67.9379H43.8875ZM68.75 30.8808C72.0652 30.8808 75.2446 29.5794 77.5888 27.2629C79.933 24.9464 81.25 21.8046 81.25 18.5285C81.25 15.2525 79.933 12.1106 77.5888 9.79409C75.2446 7.47757 72.0652 6.17617 68.75 6.17617C65.4348 6.17617 62.2554 7.47757 59.9112 9.79409C57.567 12.1106 56.25 15.2525 56.25 18.5285C56.25 21.8046 57.567 24.9464 59.9112 27.2629C62.2554 29.5794 65.4348 30.8808 68.75 30.8808ZM87.5 18.5285C87.5 20.9617 87.015 23.3711 86.0727 25.6191C85.1305 27.867 83.7494 29.9096 82.0083 31.6301C80.2672 33.3507 78.2002 34.7155 75.9253 35.6466C73.6505 36.5778 71.2123 37.057 68.75 37.057C66.2877 37.057 63.8495 36.5778 61.5747 35.6466C59.2998 34.7155 57.2328 33.3507 55.4917 31.6301C53.7506 29.9096 52.3695 27.867 51.4273 25.6191C50.485 23.3711 50 20.9617 50 18.5285C50 13.6144 51.9754 8.90164 55.4917 5.42688C59.0081 1.95211 63.7772 0 68.75 0C73.7228 0 78.492 1.95211 82.0083 5.42688C85.5246 8.90164 87.5 13.6144 87.5 18.5285ZM43.35 44.9625C40.8499 44.1846 38.2727 43.6731 35.6625 43.437C34.1958 43.2992 32.7233 43.2312 31.25 43.2332C6.25 43.2332 0 61.7617 0 67.9379C0 72.0574 2.08125 74.114 6.25 74.114H32.6C31.6735 72.1859 31.2114 70.072 31.25 67.9379C31.25 61.6999 33.6063 55.3261 38.0625 50.0023C39.5812 48.1865 41.35 46.488 43.35 44.9625ZM30.75 49.4094C27.051 54.9017 25.0527 61.3406 25 67.9379H6.25C6.25 66.3321 7.275 61.5764 11 57.2902C14.4062 53.3621 20.325 49.5329 30.75 49.4155V49.4094ZM9.375 21.6166C9.375 16.7025 11.3504 11.9897 14.8667 8.51496C18.3831 5.04019 23.1522 3.08808 28.125 3.08808C33.0978 3.08808 37.8669 5.04019 41.3833 8.51496C44.8996 11.9897 46.875 16.7025 46.875 21.6166C46.875 26.5307 44.8996 31.2435 41.3833 34.7182C37.8669 38.193 33.0978 40.1451 28.125 40.1451C23.1522 40.1451 18.3831 38.193 14.8667 34.7182C11.3504 31.2435 9.375 26.5307 9.375 21.6166ZM28.125 9.26425C24.8098 9.26425 21.6304 10.5657 19.2862 12.8822C16.942 15.1987 15.625 18.3405 15.625 21.6166C15.625 24.8926 16.942 28.0345 19.2862 30.351C21.6304 32.6675 24.8098 33.9689 28.125 33.9689C31.4402 33.9689 34.6196 32.6675 36.9638 30.351C39.308 28.0345 40.625 24.8926 40.625 21.6166C40.625 18.3405 39.308 15.1987 36.9638 12.8822C34.6196 10.5657 31.4402 9.26425 28.125 9.26425Z" fill="white"/>
</svg>
