<svg width="19" height="20" viewBox="0 0 19 20" fill="none" xmlns="http://www.w3.org/2000/svg">
<g clip-path="url(#clip0_60_142)">
<path d="M4.33883 1.769C4.26873 1.67882 4.18024 1.60459 4.07925 1.55124C3.97825 1.49789 3.86706 1.46664 3.75306 1.45956C3.63906 1.45249 3.52486 1.46975 3.41804 1.5102C3.31122 1.55065 3.21423 1.61337 3.13352 1.69419L1.90564 2.92325C1.33208 3.498 1.1207 4.31144 1.37127 5.02513C2.41121 7.97914 4.10287 10.6611 6.32077 12.8721C8.53181 15.09 11.2138 16.7816 14.1678 17.8216C14.8815 18.0722 15.6949 17.8608 16.2696 17.2873L17.4975 16.0594C17.5783 15.9787 17.6411 15.8817 17.6815 15.7749C17.722 15.668 17.7392 15.5538 17.7321 15.4398C17.7251 15.3258 17.6938 15.2146 17.6405 15.1136C17.5871 15.0127 17.5129 14.9242 17.4227 14.8541L14.6831 12.7237C14.5868 12.649 14.4747 12.5971 14.3554 12.572C14.2361 12.5469 14.1127 12.5492 13.9944 12.5788L11.3938 13.2284C11.0466 13.3151 10.683 13.3105 10.3381 13.215C9.99331 13.1195 9.67909 12.9363 9.42608 12.6833L6.50958 9.76563C6.25637 9.51273 6.07297 9.19857 5.97724 8.85374C5.88151 8.50891 5.87672 8.14517 5.96333 7.79794L6.61408 5.19731C6.64366 5.07903 6.64599 4.95558 6.62089 4.83627C6.59579 4.71696 6.54393 4.6049 6.4692 4.50856L4.33883 1.769ZM2.23695 0.798813C2.44476 0.590941 2.69441 0.429656 2.96933 0.325667C3.24425 0.221679 3.53815 0.177367 3.83151 0.195674C4.12487 0.213981 4.41097 0.294487 4.67083 0.431848C4.93069 0.569209 5.15835 0.760281 5.3387 0.992376L7.46908 3.73075C7.85977 4.23306 7.99752 4.88738 7.84314 5.50488L7.19358 8.1055C7.16 8.2402 7.16181 8.38129 7.19885 8.51508C7.23588 8.64887 7.30688 8.77081 7.40495 8.86906L10.3226 11.7867C10.421 11.885 10.5432 11.9561 10.6772 11.9932C10.8112 12.0302 10.9525 12.0319 11.0874 11.9981L13.6868 11.3486C13.9916 11.2724 14.3096 11.2665 14.617 11.3313C14.9243 11.3961 15.2129 11.5299 15.461 11.7226L18.1993 13.853C19.1838 14.6189 19.274 16.0736 18.3929 16.9536L17.165 18.1814C16.2863 19.0602 14.9729 19.4461 13.7486 19.0151C10.615 17.9125 7.76984 16.1186 5.4242 13.7663C3.07211 11.421 1.27818 8.5763 0.175455 5.44313C-0.25442 4.22 0.131517 2.90544 1.01027 2.02669L2.23814 0.798813H2.23695Z" fill="white"/>
</g>
<defs>
<clipPath id="clip0_60_142">
<rect width="19" height="19" fill="white" transform="translate(0 0.192139)"/>
</clipPath>
</defs>
</svg>
