<svg width="18" height="20" viewBox="0 0 18 20" fill="none" xmlns="http://www.w3.org/2000/svg">
<path d="M10.2857 1.27405e-05L12.8322 0C13.016 0.893764 13.5265 2.02132 14.4193 3.13993C15.2942 4.236 16.4534 5.00001 18 5.00001V7.50001C15.7456 7.50001 14.0516 6.48306 12.8571 5.21424V13.75C12.8571 17.2018 9.97897 20 6.42857 20C2.87817 20 0 17.2018 0 13.75C0 10.2982 2.87817 7.50001 6.42857 7.50001V10C4.29833 10 2.57143 11.6789 2.57143 13.75C2.57143 15.8211 4.29833 17.5 6.42857 17.5C8.55881 17.5 10.2857 15.8211 10.2857 13.75V1.27405e-05Z" fill="white"/>
</svg>
