<svg width="18" height="25" viewBox="0 0 18 25" fill="none" xmlns="http://www.w3.org/2000/svg">
<path d="M10.2857 1.59256e-05L12.8322 0C13.016 1.1172 13.5265 2.52665 14.4193 3.92491C15.2942 5.295 16.4534 6.25001 18 6.25001V9.37501C15.7456 9.37501 14.0516 8.10382 12.8571 6.5178V17.1875C12.8571 21.5022 9.97897 25 6.42857 25C2.87817 25 0 21.5022 0 17.1875C0 12.8728 2.87817 9.37501 6.42857 9.37501V12.5C4.29833 12.5 2.57143 14.5987 2.57143 17.1875C2.57143 19.7763 4.29833 21.875 6.42857 21.875C8.55881 21.875 10.2857 19.7763 10.2857 17.1875V1.59256e-05Z" fill="#550317"/>
</svg>
