<svg width="33" height="40" viewBox="0 0 33 40" fill="none" xmlns="http://www.w3.org/2000/svg">
<path d="M18.8571 2.5481e-05L23.5257 0C23.8627 1.78753 24.7986 4.04264 26.4354 6.27986C28.0393 8.47199 30.1646 10 33 10V15C28.867 15 25.7614 12.9661 23.5714 10.4285V27.5C23.5714 34.4036 18.2948 40 11.7857 40C5.27664 40 0 34.4036 0 27.5C0 20.5965 5.27664 15 11.7857 15V20C7.88027 20 4.71429 23.3579 4.71429 27.5C4.71429 31.6421 7.88027 35 11.7857 35C15.6912 35 18.8571 31.6421 18.8571 27.5V2.5481e-05Z" fill="#C11A51" fill-opacity="0.4"/>
</svg>
